<svg height="96" viewBox="0 0 96 96" width="96" xmlns="http://www.w3.org/2000/svg" xmlns:xlink="http://www.w3.org/1999/xlink"><linearGradient id="a"><stop offset="0" stop-color="#38efcf"/><stop offset="1" stop-color="#3265c1"/></linearGradient><linearGradient id="b" x1="27.972412%" x2="82.8125%" xlink:href="#a" y1="383.398438%" y2="-151.627604%"/><linearGradient id="c" x1="14.776673%" x2="82.8125%" xlink:href="#a" y1="224.179774%" y2="-151.627604%"/><linearGradient id="d" x1="-35.763566%" x2="82.8125%" xlink:href="#a" y1="144.737796%" y2="-151.627604%"/><linearGradient id="e" x1="-14.917046%" x2="82.8125%" xlink:href="#a" y1="214.275395%" y2="-151.627604%"/><linearGradient id="f" x1="34.456588%" x2="82.8125%" xlink:href="#a" y1="192.88704%" y2="-151.627604%"/><linearGradient id="g" x1="-42.075825%" x2="82.8125%" xlink:href="#a" y1="141.429111%" y2="-151.627604%"/><g fill="none" fill-rule="evenodd" transform=""><rect fill="#fff" height="96" rx="20" width="96"/><path d="m16 21c0-3.3128 2.6872-6 6-6h52c3.3128 0 6 2.6872 6 6z" stroke="url(#b)" stroke-linecap="round" stroke-linejoin="round" stroke-width="1.5"/><path d="m64 48h13c1.7225178 0 3 1.3854307 3 3v28c0 1.6145693-1.2774822 3-3 3h-13c-1.7225178 0-3-1.3854307-3-3v-28c.0007837-1.6145693 1.2782659-3 3-3z" stroke="url(#b)" stroke-linecap="round" stroke-linejoin="round" stroke-width="1.5"/><path d="m61 53h19v23h-19z" stroke="url(#b)" stroke-linecap="round" stroke-linejoin="round" stroke-width="1.5"/><path d="m71 79c0 .5537785-.4494202 1-1 1-.5529788 0-1-.4462215-1-1 0-.5505798.4470212-1 1-1 .5505798 0 1 .4486206 1 1z" fill="#44a0bd"/><g stroke-linecap="round" stroke-linejoin="round" stroke-width="1.5"><path d="m48 55h-32c0 3.3128 2.6872 6 6 6h26z" stroke="url(#c)"/><path d="m48 61h-10c-.0184267 7.1791692.6275314 13-6 13h16z" stroke="url(#d)"/><path d="m16 21v34h32v-16c-.0004-1.7428629 1.3035837-3.1274436 3-3h26c1.6992163-.1274436 3 1.2571371 3 3v-18z" stroke="url(#e)"/><path d="m48 42v34h13v-23-2c0-1.6595824.9100522-2.6253187 3-3h13c1.6960326.3746813 3 1.760112 3 3v-9z" stroke="url(#f)"/><path d="m80 55.5192475v-16.5192475c-.0008-1.6376132-1.3016325-3-3-3h-26c-1.6975674 0-3 1.3623868-3 3v40c0 1.6367768 1.3024326 3 3 3h7.243274" stroke="url(#g)"/></g></g></svg>