<svg width="366" height="40" viewBox="0 0 366 40" fill="none" xmlns="http://www.w3.org/2000/svg">
<path d="M0 5.28339H27.9245V11.3211H9.05662V15.8495H27.1699V21.8872H9.05662V27.9247H28.6792V34.7174H0V5.28339Z" fill="white"/>
<path d="M53.5848 5.28293H62.6414V22.6414C62.6414 24.1508 61.8867 25.6605 61.1319 27.1698C61.1319 28.6793 59.6225 30.1886 58.113 31.698C57.3582 32.4527 55.8489 33.2076 54.3394 33.9623C52.0753 34.717 49.8111 34.7169 46.7922 34.7169C45.2828 34.7169 43.7735 34.7169 41.5094 34.7169C39.9999 34.7169 38.4904 33.9622 36.9809 33.2074C35.4715 33.2074 34.7168 31.698 33.2074 30.9434C32.4527 29.4339 31.6979 28.6793 30.9432 27.1698C30.1885 25.6605 30.1886 24.1508 30.1886 22.6414V5.28293H39.2451V22.6414C39.2451 24.9056 39.9997 25.6603 40.7545 26.415C42.264 27.9244 43.7733 27.9244 46.0375 27.9244C48.3017 27.9244 50.5659 27.9244 51.3206 26.415C52.8301 25.6603 53.5848 24.9056 53.5848 22.6414V5.28293Z" fill="white"/>
<path d="M73.2074 16.6038C76.2263 16.6038 78.4904 16.6038 81.5093 16.6038C81.5093 16.6038 82.2641 16.6038 83.7735 16.6038C84.5282 16.6038 85.2829 15.8489 85.2829 15.8489C86.0376 15.0942 86.0375 14.3395 86.0375 13.5849C86.0375 12.8301 86.0376 12.0755 85.2829 11.3208C84.5282 11.3208 83.0186 10.5659 81.5093 10.5659H73.2074V16.6038ZM64.1508 34.7169V5.28293H81.5093C85.2829 5.28293 87.5471 5.28316 89.0565 6.03781C90.566 6.03781 92.0753 6.79239 92.83 8.30187C94.3394 9.81126 95.0942 11.3209 95.0942 12.8303C95.0942 15.0944 94.3394 15.849 93.5847 17.3584C92.83 18.8679 91.3206 19.6227 90.5659 20.3774C89.8112 20.3774 89.0564 21.132 88.3017 21.132C89.0564 21.8867 89.0565 21.8867 89.8112 22.6414C89.8112 22.6414 90.566 23.3962 91.3207 24.1509C92.0754 24.9056 92.0753 25.6604 92.0753 25.6604C94.3394 28.6792 97.3583 34.7169 97.3583 34.7169H87.547C87.547 34.7169 83.7734 28.6792 82.264 25.6604C81.5092 24.1509 80.7546 24.151 79.9999 23.3963C79.2452 22.6417 76.9809 22.6414 75.4715 22.6414C74.7168 22.6414 73.9622 22.6414 73.2074 22.6414V34.7169H64.1508Z" fill="white"/>
<path d="M160 23.3963V17.3584H175.094V30.1888C172.075 31.6982 169.811 33.2076 166.792 33.9623C164.528 34.717 162.264 34.7169 158.491 34.7169C154.717 34.7169 151.698 34.7168 148.679 33.2075C146.415 31.698 144.906 30.1886 143.396 27.9245C141.887 25.6603 141.132 22.6417 141.132 19.6228C141.132 16.6039 141.887 13.585 143.396 11.3208C144.906 9.05666 147.17 6.79257 150.189 6.03783C152.453 5.28318 155.472 4.52836 159.245 4.52836C163.019 4.52836 165.283 4.52821 167.547 5.28295C169.057 6.0376 170.566 6.79241 172.075 8.30189C173.585 9.05654 174.34 10.5662 175.094 12.8303L164.528 14.3395C164.528 13.5848 163.773 12.0754 163.019 12.0754C161.509 11.3207 160.755 10.566 159.245 10.566C156.981 10.566 153.962 11.3209 152.453 12.8303C150.943 14.3397 150.189 16.6039 150.189 19.6228C150.189 22.6417 150.943 24.9056 152.453 26.415C153.962 27.9245 157.736 28.6793 160 28.6793C161.509 28.6793 162.264 28.6791 163.774 27.9245C164.528 27.9245 166.038 27.1697 167.547 26.415V23.3963H160Z" fill="white"/>
<path d="M196.981 23.3963L192.453 12.8303L188.679 23.3963H196.981ZM199.245 29.4339H185.66L184.151 34.7169H174.34L187.17 5.28293H198.491L211.321 34.7169H201.509L199.245 29.4339Z" fill="white"/>
<path d="M211.321 5.28339H224.906L230.189 22.6419L236.226 5.28339H249.057V34.7174H240.755V12.0758L233.962 34.7174H226.415L219.623 12.0758V34.7174H211.321V5.28339Z" fill="white"/>
<path d="M135.094 26.415C134.34 27.1698 133.585 27.1698 132.83 27.9245C131.321 27.9245 130.566 27.9247 129.811 27.1699C129.811 26.4152 129.811 26.4151 129.811 25.6604C129.811 25.6604 129.811 25.6604 129.056 25.6604C129.056 24.9057 127.547 25.6604 127.547 26.415C126.792 27.1698 128.302 27.1698 128.302 27.9245C127.547 27.9245 126.792 27.9245 126.792 27.9245C125.283 27.9245 125.283 26.4151 124.528 25.6604C123.773 24.9057 122.264 24.9057 121.509 24.151C121.509 24.151 121.509 23.3964 120.755 23.3964H120C119.245 24.1511 120 24.1511 120 24.9059C120.755 25.6606 122.264 26.415 123.019 26.415C123.773 26.415 123.773 27.1699 124.528 27.1699C123.773 27.1699 123.773 27.1699 123.773 27.1699C123.019 27.1699 123.019 27.1699 123.019 27.1699C123.773 27.9247 123.773 28.6794 123.019 28.6794C123.019 27.17 120.755 26.415 119.245 26.415C119.245 25.6604 119.245 25.6606 118.49 24.9059H117.736C116.981 24.9059 116.226 25.6604 115.472 25.6604C113.962 26.4151 113.207 27.17 112.453 28.6794C111.698 29.4341 111.698 30.1889 110.943 30.1889C110.189 30.9436 109.434 30.9436 108.679 30.1889C107.925 30.1889 107.924 30.1889 107.17 30.1889C106.415 29.4341 106.415 28.6792 106.415 27.9245C106.415 27.9245 106.415 27.1699 107.17 27.1699C107.17 26.4152 106.415 25.6604 107.17 25.6604C107.17 24.9057 107.924 24.9059 107.924 24.9059C108.679 25.6606 110.189 25.6604 110.943 25.6604C112.453 24.151 110.943 22.6415 109.434 21.132C110.189 21.132 110.189 21.8869 110.943 21.8869C110.943 21.1322 110.943 20.3773 111.698 21.132C113.207 21.132 113.962 19.6227 114.717 18.868H115.472V18.1134C116.226 18.1134 116.981 17.3585 116.981 17.3585C116.981 16.6038 116.226 15.849 116.226 15.849C116.981 15.0943 116.981 14.3397 116.981 15.0944C117.736 15.0944 117.736 15.0943 117.736 15.849C117.736 15.849 117.736 15.849 118.49 15.849C118.49 15.849 118.49 15.849 117.736 15.849C116.981 15.849 117.736 17.3585 118.49 17.3585C118.49 17.3585 118.49 16.6039 119.245 16.6039C119.245 16.6039 119.245 16.6038 120 17.3585C120 16.6038 120.755 16.6038 121.509 15.849C121.509 15.849 122.264 16.6038 122.264 15.849C122.264 15.0943 122.264 14.3396 123.019 13.585H123.773C123.773 13.585 123.773 13.5851 123.773 12.8304H123.019C123.773 12.0756 124.528 11.3209 125.283 11.3209C125.283 10.5662 124.528 10.566 124.528 10.566L123.773 11.3209C123.019 11.3209 122.264 11.3209 121.509 11.3209C121.509 10.5662 121.509 10.5662 121.509 9.81142C121.509 9.05668 122.264 9.0566 122.264 8.30195C121.509 8.30195 121.509 7.54736 121.509 7.54736H120.755C121.509 9.05675 120 9.81127 120 10.566C120 11.3207 120.755 11.3208 120.755 12.0755C120.755 12.8302 120 14.3397 120 15.0944L119.245 15.849C118.49 15.0943 118.49 13.585 116.981 13.585C116.981 13.585 116.226 13.5849 115.472 14.3396C115.472 12.8302 114.717 12.0756 114.717 11.3209C115.472 10.5662 116.226 9.81128 116.981 9.05654C116.981 8.3019 117.736 7.54722 117.736 6.79248C117.736 6.79248 117.736 6.79263 117.736 6.03789C117.736 6.03789 118.49 6.03765 118.49 5.28301C119.245 4.52827 120 4.52828 120 3.77354C120.755 3.77354 121.509 3.77354 122.264 3.77354C123.019 3.77354 123.773 3.77354 123.773 3.77354C124.528 3.77354 125.283 4.52842 126.038 4.52842C126.038 5.28316 126.038 5.28301 125.283 5.28301C125.283 5.28301 124.528 5.28324 124.528 6.03789C125.283 6.03789 125.283 6.79248 126.038 6.79248C126.792 6.79248 126.792 6.03789 126.792 6.03789C126.792 6.03789 126.792 6.03765 126.792 5.28301C132.83 8.30188 136.604 13.5851 136.604 19.6228C136.604 22.6417 135.849 24.9056 135.094 26.415ZM128.302 29.434C129.056 29.434 129.056 29.434 129.811 29.434H130.566C129.811 29.434 129.811 29.434 129.811 29.434C129.056 29.434 129.056 29.434 128.302 29.434ZM126.792 28.6794L127.547 27.9245C127.547 28.6792 128.302 28.6794 128.302 28.6794C128.302 29.4341 127.547 29.4341 127.547 28.6794C127.547 28.6794 127.547 28.6794 126.792 28.6794ZM120.755 29.434C121.509 28.6793 121.509 28.6794 122.264 28.6794H123.019V30.1889C122.264 29.4341 121.509 29.434 120.755 29.434ZM118.49 25.6604V26.415V27.1699C117.736 26.4152 117.736 26.4151 118.49 25.6604ZM118.49 27.1699C118.49 27.9247 118.49 27.9247 118.49 28.6794L117.736 27.9245V27.1699H118.49ZM117.736 36.9813C113.207 36.9813 108.679 35.4716 105.66 33.2075C106.415 33.2075 107.17 32.4529 107.924 32.4529C107.924 31.6982 107.925 30.9435 108.679 30.9435C109.434 31.6981 110.189 31.698 110.943 31.698C113.962 30.1887 116.981 30.1889 119.245 30.1889C120 30.9436 120 31.6982 119.245 32.4529C120.755 33.2077 122.264 33.2075 123.773 33.2075L124.528 33.9624C125.283 33.9624 126.792 33.9624 126.792 33.9624C126.792 33.2077 127.547 32.4529 127.547 32.4529C128.302 31.6982 129.811 32.4529 130.566 32.4529C127.547 35.4718 123.019 36.9813 117.736 36.9813ZM104.906 8.30195L105.66 7.54736L104.906 6.79248C104.906 6.79248 104.906 6.79248 105.66 6.79248H106.415C107.17 7.54722 107.17 7.54736 107.924 7.54736V8.30195C107.17 9.0566 106.415 9.05654 105.66 9.05654C105.66 9.05654 105.66 8.30195 104.906 8.30195ZM108.679 16.6039V15.849C109.434 16.6038 109.434 16.6038 109.434 17.3585V18.1134C108.679 18.8681 107.924 18.868 107.924 18.868C107.924 18.868 107.17 18.8681 107.17 18.1134H107.924C107.924 17.3586 107.925 17.3586 108.679 16.6039ZM110.189 14.3396C110.189 14.3396 110.189 14.3396 110.943 13.585C110.943 14.3396 110.943 14.3396 110.943 14.3396C110.943 15.0943 111.698 14.3397 111.698 15.0944C111.698 15.0944 110.943 15.849 111.698 15.849C111.698 16.6038 112.453 17.3585 112.453 17.3585C112.453 18.1132 113.207 18.1132 113.207 18.868V19.6228C111.698 19.6228 110.943 20.3774 109.434 20.3774C110.189 20.3774 110.189 19.6228 110.943 19.6228C110.943 19.6228 110.189 19.6227 110.189 18.868C110.189 18.1132 110.189 18.1134 110.189 18.1134C110.189 17.3586 110.943 17.3585 110.943 17.3585C110.189 16.6038 110.189 15.849 110.189 15.849C109.434 15.0943 110.189 15.0943 110.189 14.3396ZM117.736 0C104.906 0 95.0942 9.05669 95.0942 20.3774C95.0942 30.9435 104.906 40 117.736 40C129.811 40 139.623 30.9435 139.623 20.3774C139.623 9.05669 129.811 0 117.736 0Z" fill="white"/>
<path d="M252.075 5.28339H280V11.3211H260.377V15.8495H278.49V21.8872H260.377V27.9247H280V34.7174H252.075V5.28339Z" fill="white"/>
<path d="M290.566 16.6038C293.585 16.6038 295.849 16.6038 298.868 16.6038C298.868 16.6038 299.623 16.6038 301.132 16.6038C301.887 16.6038 302.641 15.849 303.396 15.849C303.396 15.0942 303.396 14.3395 303.396 13.5849C303.396 12.8302 303.396 12.0755 302.641 11.3208C301.887 11.3208 300.377 10.566 298.868 10.566H290.566V16.6038ZM282.264 34.7169V4.52836H298.868C302.641 4.52836 304.905 5.28295 306.415 5.28295C307.924 6.0376 309.434 6.79241 310.943 8.30189C311.698 9.81128 312.453 11.3209 312.453 12.8303C312.453 14.3397 311.698 15.849 310.943 17.3584C310.189 18.1132 309.434 19.6227 307.924 20.3774C307.17 20.3774 306.415 21.132 305.66 21.132C306.415 21.8867 306.415 21.8867 307.17 22.6414C307.17 22.6414 307.924 23.3962 308.679 24.1509C309.434 24.9057 309.434 25.6604 310.189 25.6604C311.698 28.6792 314.717 34.7169 314.717 34.7169H304.906C304.906 34.7169 301.132 28.6792 299.623 25.6604C298.868 24.1509 298.113 23.3963 297.358 23.3963C296.604 22.6417 294.34 22.6414 293.585 22.6414C292.83 22.6414 292.075 22.6414 290.566 22.6414V34.7169H282.264Z" fill="white"/>
</svg>
