<?xml version="1.0" encoding="UTF-8" standalone="no"?>
<!-- Created with Inkscape (http://www.inkscape.org/) -->
<svg
   xmlns:dc="http://purl.org/dc/elements/1.1/"
   xmlns:cc="http://web.resource.org/cc/"
   xmlns:rdf="http://www.w3.org/1999/02/22-rdf-syntax-ns#"
   xmlns:svg="http://www.w3.org/2000/svg"
   xmlns="http://www.w3.org/2000/svg"
   xmlns:sodipodi="http://sodipodi.sourceforge.net/DTD/sodipodi-0.dtd"
   xmlns:inkscape="http://www.inkscape.org/namespaces/inkscape"
   width="754.02942"
   height="95.835884"
   id="svg16266"
   sodipodi:version="0.32"
   inkscape:version="0.45"
   sodipodi:modified="true"
   version="1.0">
  <defs
     id="defs16268" />
  <sodipodi:namedview
     id="base"
     pagecolor="#ffffff"
     bordercolor="#666666"
     borderopacity="1.0"
     gridtolerance="10000"
     guidetolerance="10"
     objecttolerance="10"
     inkscape:pageopacity="0.0"
     inkscape:pageshadow="2"
     inkscape:zoom="0.35"
     inkscape:cx="375"
     inkscape:cy="520"
     inkscape:document-units="px"
     inkscape:current-layer="g15963"
     inkscape:window-width="776"
     inkscape:window-height="583"
     inkscape:window-x="110"
     inkscape:window-y="110" />
  <metadata
     id="metadata16271">
    <rdf:RDF>
      <cc:Work
         rdf:about="">
        <dc:format>image/svg+xml</dc:format>
        <dc:type
           rdf:resource="http://purl.org/dc/dcmitype/StillImage" />
      </cc:Work>
    </rdf:RDF>
  </metadata>
  <g
     inkscape:label="Layer 1"
     inkscape:groupmode="layer"
     id="layer1"
     transform="translate(-0.4568989,-452.68733)">
    <g
       transform="matrix(10.04569,0,0,10.04569,-3330.4406,-5501.8265)"
       id="g15963"> <clipPath
   id="ClipId21">
<path
   d="M 318.6,585.36 L 416.7,585.36 L 416.7,615.42 L 318.6,615.42 L 318.6,585.36 z "
   id="path15966" />

</clipPath>


<polygon
   style="fill:#0c84ff;fill-opacity:1;fill-rule:nonzero;stroke:none;stroke-width:0.28;stroke-linecap:butt;stroke-linejoin:bevel"
   points="324.18,602.82 330.84,602.82 330.84,604.26 326.34,604.26 326.34,605.34 330.66,605.34 330.66,606.78 326.34,606.78 326.34,608.22 331.02,608.22 331.02,609.84 324.18,609.84 324.18,602.82 "
   id="polygon15970"
   transform="matrix(0.8807486,0,0,0.8807486,50.529217,63.488856)" />

<path
   style="fill:#0c84ff;fill-opacity:1;fill-rule:nonzero;stroke:none;stroke-width:0.28;stroke-linecap:butt;stroke-linejoin:bevel"
   d="M 347.30626,594.42172 L 349.20867,594.42172 L 349.20867,598.06802 C 349.20867,598.38508 349.05014,598.70216 348.8916,599.01922 C 348.8916,599.33629 348.57454,599.65336 348.25746,599.97042 C 348.09892,600.12896 347.78186,600.2875 347.46478,600.44604 C 346.98918,600.60456 346.51358,600.60456 345.87944,600.60456 C 345.56237,600.60456 345.2453,600.60456 344.7697,600.60456 C 344.45262,600.60456 344.13556,600.44604 343.81849,600.2875 C 343.50142,600.2875 343.34288,599.97042 343.02582,599.8119 C 342.86728,599.49482 342.70874,599.33629 342.55021,599.01922 C 342.39168,598.70216 342.39168,598.38508 342.39168,598.06802 L 342.39168,594.42172 L 344.2941,594.42172 L 344.2941,598.06802 C 344.2941,598.54362 344.45262,598.70216 344.61116,598.86068 C 344.92824,599.17776 345.2453,599.17776 345.7209,599.17776 C 346.19651,599.17776 346.67212,599.17776 346.83065,598.86068 C 347.14772,598.70216 347.30626,598.54362 347.30626,598.06802 L 347.30626,594.42172 z "
   id="path15972" />

<path
   style="fill:#0c84ff;fill-opacity:1;fill-rule:nonzero;stroke:none;stroke-width:0.28;stroke-linecap:butt;stroke-linejoin:bevel"
   d="M 351.42816,596.79974 C 352.0623,596.79974 352.5379,596.79974 353.17204,596.79974 C 353.17204,596.79974 353.33058,596.79974 353.64764,596.79974 C 353.80618,596.79974 353.96472,596.6412 353.96472,596.6412 C 354.12324,596.48266 354.12324,596.32412 354.12324,596.1656 C 354.12324,596.00706 354.12324,595.84852 353.96472,595.68999 C 353.80618,595.68999 353.4891,595.53146 353.17204,595.53146 L 351.42816,595.53146 L 351.42816,596.79974 z M 349.52574,600.60456 L 349.52574,594.42172 L 353.17204,594.42172 C 353.96472,594.42172 354.44032,594.42172 354.75738,594.58024 C 355.07446,594.58024 355.39152,594.73878 355.55006,595.05586 C 355.86713,595.37292 356.02566,595.68999 356.02566,596.00706 C 356.02566,596.48266 355.86713,596.6412 355.7086,596.95826 C 355.55006,597.27534 355.23299,597.43388 355.07446,597.5924 C 354.91592,597.5924 354.75738,597.75094 354.59886,597.75094 C 354.75738,597.90948 354.75738,597.90948 354.91592,598.06802 C 354.91592,598.06802 355.07446,598.22654 355.23299,598.38508 C 355.39152,598.54362 355.39152,598.70216 355.39152,598.70216 C 355.86713,599.33629 356.50126,600.60456 356.50126,600.60456 L 354.44032,600.60456 C 354.44032,600.60456 353.64764,599.33629 353.33058,598.70216 C 353.17204,598.38508 353.0135,598.38508 352.85497,598.22654 C 352.69644,598.06802 352.22083,598.06802 351.90376,598.06802 C 351.74522,598.06802 351.5867,598.06802 351.42816,598.06802 L 351.42816,600.60456 L 349.52574,600.60456 z "
   id="path15974" />

<path
   style="fill:#0c84ff;fill-opacity:1;fill-rule:nonzero;stroke:none;stroke-width:0.28;stroke-linecap:butt;stroke-linejoin:bevel"
   d="M 369.65966,598.22654 L 369.65966,596.95826 L 372.83034,596.95826 L 372.83034,599.65336 C 372.1962,599.97042 371.7206,600.2875 371.08646,600.44604 C 370.61086,600.60456 370.13526,600.60456 369.34258,600.60456 C 368.54991,600.60456 367.91577,600.60456 367.28164,600.2875 C 366.80602,599.97042 366.48896,599.65336 366.17188,599.17776 C 365.85482,598.70216 365.69628,598.06802 365.69628,597.43388 C 365.69628,596.79974 365.85482,596.1656 366.17188,595.68999 C 366.48896,595.21438 366.96456,594.73878 367.5987,594.58024 C 368.0743,594.42172 368.70844,594.26318 369.50112,594.26318 C 370.2938,594.26318 370.7694,594.26318 371.245,594.42172 C 371.56207,594.58024 371.87914,594.73878 372.1962,595.05586 C 372.51328,595.21438 372.67182,595.53146 372.83034,596.00706 L 370.61086,596.32412 C 370.61086,596.1656 370.45232,595.84852 370.2938,595.84852 C 369.97672,595.68999 369.81818,595.53146 369.50112,595.53146 C 369.02552,595.53146 368.39138,595.68999 368.0743,596.00706 C 367.75724,596.32412 367.5987,596.79974 367.5987,597.43388 C 367.5987,598.06802 367.75724,598.54362 368.0743,598.86068 C 368.39138,599.17776 369.18404,599.33629 369.65966,599.33629 C 369.97672,599.33629 370.13526,599.33629 370.45232,599.17776 C 370.61086,599.17776 370.92793,599.01922 371.245,598.86068 L 371.245,598.22654 L 369.65966,598.22654 z "
   id="path15976" />

<path
   style="fill:#0c84ff;fill-opacity:1;fill-rule:nonzero;stroke:none;stroke-width:0.28;stroke-linecap:butt;stroke-linejoin:bevel"
   d="M 377.42786,598.22654 L 376.47664,596.00706 L 375.68398,598.22654 L 377.42786,598.22654 z M 377.90346,599.49482 L 375.04984,599.49482 L 374.73276,600.60456 L 372.67182,600.60456 L 375.3669,594.42172 L 377.74492,594.42172 L 380.44002,600.60456 L 378.37906,600.60456 L 377.90346,599.49482 z "
   id="path15978" />

<polygon
   style="fill:#0c84ff;fill-opacity:1;fill-rule:nonzero;stroke:none;stroke-width:0.28;stroke-linecap:butt;stroke-linejoin:bevel"
   points="374.58,602.82 377.82,602.82 379.08,606.96 380.52,602.82 383.58,602.82 383.58,609.84 381.6,609.84 381.6,604.44 379.98,609.84 378.18,609.84 376.56,604.44 376.56,609.84 374.58,609.84 374.58,602.82 "
   id="polygon15980"
   transform="matrix(0.8807486,0,0,0.8807486,50.529217,63.488856)" />

<path
   style="fill:#0c84ff;fill-opacity:1;fill-rule:nonzero;stroke:none;stroke-width:0.28;stroke-linecap:butt;stroke-linejoin:bevel"
   d="M 364.428,598.86068 C 364.26948,599.01922 364.11094,599.01922 363.9524,599.17776 C 363.63534,599.17776 363.4768,599.17776 363.31826,599.01922 C 363.31826,598.86068 363.31826,598.86068 363.31826,598.70216 C 363.31826,598.70216 363.31826,598.70216 363.15972,598.70216 L 363.15972,598.70216 C 363.15972,598.54362 362.84266,598.70216 362.84266,598.86068 C 362.68412,599.01922 363.0012,599.01922 363.0012,599.17776 C 362.84266,599.17776 362.68412,599.17776 362.68412,599.17776 C 362.36706,599.17776 362.36706,598.86068 362.20852,598.70216 C 362.04998,598.54362 361.73292,598.54362 361.57438,598.38508 C 361.57438,598.38508 361.57438,598.22654 361.41584,598.22654 C 361.41584,598.22654 361.25732,598.22654 361.25732,598.22654 C 361.09878,598.38508 361.25732,598.38508 361.25732,598.54362 C 361.41584,598.70216 361.73292,598.86068 361.89145,598.86068 C 362.04998,598.86068 362.04998,599.01922 362.20852,599.01922 C 362.04998,599.01922 362.04998,599.01922 362.04998,599.01922 C 361.89145,599.01922 361.89145,599.01922 361.89145,599.01922 C 362.04998,599.17776 362.04998,599.33629 361.89145,599.33629 C 361.89145,599.01922 361.41584,598.86068 361.09878,598.86068 C 361.09878,598.70216 361.09878,598.70216 360.94024,598.54362 C 360.94024,598.54362 360.7817,598.54362 360.7817,598.54362 C 360.62318,598.54362 360.46464,598.70216 360.3061,598.70216 C 359.98904,598.86068 359.8305,599.01922 359.67196,599.33629 C 359.51342,599.49482 359.51342,599.65336 359.3549,599.65336 C 359.19636,599.8119 359.03782,599.8119 358.87929,599.65336 C 358.72076,599.65336 358.72076,599.65336 358.56222,599.65336 C 358.40368,599.49482 358.40368,599.33629 358.40368,599.17776 C 358.40368,599.17776 358.40368,599.01922 358.56222,599.01922 C 358.56222,598.86068 358.40368,598.70216 358.56222,598.70216 C 358.56222,598.54362 358.72076,598.54362 358.72076,598.54362 C 358.87929,598.70216 359.19636,598.70216 359.3549,598.70216 C 359.67196,598.38508 359.3549,598.06802 359.03782,597.75094 C 359.19636,597.75094 359.19636,597.90948 359.3549,597.90948 C 359.3549,597.75094 359.3549,597.5924 359.51342,597.75094 C 359.8305,597.75094 359.98904,597.43388 360.14756,597.27534 C 360.14756,597.27534 360.3061,597.27534 360.3061,597.27534 L 360.3061,597.1168 C 360.46464,597.1168 360.62318,596.95826 360.62318,596.95826 C 360.62318,596.79974 360.46464,596.6412 360.46464,596.6412 C 360.62318,596.48266 360.62318,596.32412 360.62318,596.48266 C 360.7817,596.48266 360.7817,596.48266 360.7817,596.6412 C 360.7817,596.6412 360.7817,596.6412 360.7817,596.6412 C 360.7817,596.6412 360.7817,596.6412 360.94024,596.6412 C 360.94024,596.6412 360.94024,596.6412 360.94024,596.6412 C 360.94024,596.6412 360.94024,596.6412 360.7817,596.6412 C 360.7817,596.6412 360.7817,596.6412 360.7817,596.6412 C 360.7817,596.6412 360.7817,596.6412 360.7817,596.6412 C 360.7817,596.6412 360.7817,596.6412 360.7817,596.6412 C 360.62318,596.6412 360.7817,596.95826 360.94024,596.95826 C 360.94024,596.95826 360.94024,596.79974 361.09878,596.79974 C 361.09878,596.79974 361.09878,596.79974 361.25732,596.95826 C 361.25732,596.79974 361.41584,596.79974 361.57438,596.6412 C 361.57438,596.6412 361.73292,596.79974 361.73292,596.6412 C 361.73292,596.48266 361.73292,596.32412 361.89145,596.1656 L 362.04998,596.1656 C 362.04998,596.1656 362.04998,596.1656 362.04998,596.00706 C 362.04998,596.00706 361.89145,596.00706 361.89145,596.00706 C 362.04998,595.84852 362.20852,595.68999 362.36706,595.68999 C 362.36706,595.53146 362.20852,595.53146 362.20852,595.53146 C 362.20852,595.53146 362.04998,595.68999 362.04998,595.68999 C 361.89145,595.68999 361.73292,595.68999 361.57438,595.68999 C 361.57438,595.53146 361.57438,595.53146 361.57438,595.37292 C 361.57438,595.21438 361.73292,595.21438 361.73292,595.05586 C 361.57438,595.05586 361.57438,594.89732 361.57438,594.89732 C 361.57438,594.89732 361.57438,594.89732 361.57438,594.89732 C 361.57438,594.89732 361.41584,594.89732 361.41584,594.89732 C 361.57438,595.21438 361.25732,595.37292 361.25732,595.53146 C 361.25732,595.68999 361.41584,595.68999 361.41584,595.84852 C 361.41584,596.00706 361.25732,596.32412 361.25732,596.48266 C 361.25732,596.48266 361.09878,596.6412 361.09878,596.6412 C 360.94024,596.48266 360.94024,596.1656 360.62318,596.1656 C 360.62318,596.1656 360.46464,596.1656 360.3061,596.32412 C 360.3061,596.00706 360.14756,595.84852 360.14756,595.68999 C 360.3061,595.53146 360.46464,595.37292 360.62318,595.21438 C 360.62318,595.05586 360.7817,594.89732 360.7817,594.73878 C 360.7817,594.73878 360.7817,594.73878 360.7817,594.58024 C 360.7817,594.58024 360.94024,594.58024 360.94024,594.42172 L 360.94024,594.42172 C 361.09878,594.26318 361.25732,594.26318 361.25732,594.10464 C 361.41584,594.10464 361.57438,594.10464 361.73292,594.10464 C 361.73292,594.10464 361.73292,594.10464 361.73292,594.10464 C 361.73292,594.10464 361.73292,594.10464 361.73292,594.10464 C 361.89145,594.10464 362.04998,594.10464 362.04998,594.10464 C 362.20852,594.10464 362.36706,594.26318 362.52558,594.26318 C 362.52558,594.42172 362.52558,594.42172 362.36706,594.42172 C 362.36706,594.42172 362.20852,594.42172 362.20852,594.58024 C 362.36706,594.58024 362.36706,594.73878 362.52558,594.73878 C 362.52558,594.73878 362.52558,594.73878 362.52558,594.73878 C 362.68412,594.73878 362.68412,594.58024 362.68412,594.58024 C 362.68412,594.58024 362.68412,594.58024 362.68412,594.42172 C 362.68412,594.42172 362.68412,594.42172 362.68412,594.42172 C 363.9524,595.05586 364.74508,596.1656 364.74508,597.43388 C 364.74508,598.06802 364.58654,598.54362 364.428,598.86068 L 364.428,598.86068 z M 363.0012,599.49482 C 363.15972,599.49482 363.15972,599.49482 363.31826,599.49482 C 363.31826,599.49482 363.4768,599.49482 363.4768,599.49482 C 363.31826,599.49482 363.31826,599.49482 363.31826,599.49482 C 363.31826,599.49482 363.31826,599.49482 363.31826,599.49482 C 363.15972,599.49482 363.15972,599.49482 363.0012,599.49482 z M 362.68412,599.33629 C 362.68412,599.33629 362.84266,599.17776 362.84266,599.17776 C 362.84266,599.33629 363.0012,599.33629 363.0012,599.33629 C 363.0012,599.49482 362.84266,599.49482 362.84266,599.33629 C 362.84266,599.33629 362.84266,599.33629 362.68412,599.33629 C 362.68412,599.33629 362.68412,599.33629 362.68412,599.33629 z M 361.41584,599.49482 C 361.57438,599.33629 361.57438,599.33629 361.73292,599.33629 C 361.73292,599.33629 361.89145,599.33629 361.89145,599.33629 L 361.89145,599.65336 C 361.73292,599.49482 361.57438,599.49482 361.41584,599.49482 z M 360.94024,598.70216 L 360.94024,598.86068 L 360.94024,599.01922 C 360.7817,598.86068 360.7817,598.86068 360.94024,598.70216 z M 360.94024,599.01922 C 360.94024,599.17776 360.94024,599.17776 360.94024,599.33629 C 360.94024,599.33629 360.7817,599.17776 360.7817,599.17776 L 360.7817,599.01922 C 360.7817,599.01922 360.94024,599.01922 360.94024,599.01922 z M 360.7817,601.08018 C 359.8305,601.08018 358.87929,600.7631 358.24516,600.2875 C 358.40368,600.2875 358.56222,600.12896 358.72076,600.12896 C 358.72076,599.97042 358.72076,599.8119 358.87929,599.8119 C 359.03782,599.97042 359.19636,599.97042 359.3549,599.97042 C 359.98904,599.65336 360.62318,599.65336 361.09878,599.65336 C 361.25732,599.8119 361.25732,599.97042 361.09878,600.12896 C 361.41584,600.2875 361.73292,600.2875 362.04998,600.2875 C 362.04998,600.2875 362.20852,600.44604 362.20852,600.44604 C 362.36706,600.44604 362.68412,600.44604 362.68412,600.44604 C 362.68412,600.2875 362.84266,600.12896 362.84266,600.12896 C 363.0012,599.97042 363.31826,600.12896 363.4768,600.12896 C 362.84266,600.7631 361.89145,601.08018 360.7817,601.08018 z M 358.08662,595.05586 C 358.08662,595.05586 358.24516,594.89732 358.24516,594.89732 C 358.24516,594.89732 358.08662,594.73878 358.08662,594.73878 C 358.08662,594.73878 358.08662,594.73878 358.24516,594.73878 C 358.24516,594.73878 358.40368,594.73878 358.40368,594.73878 C 358.56222,594.89732 358.56222,594.89732 358.72076,594.89732 C 358.72076,594.89732 358.72076,595.05586 358.72076,595.05586 C 358.56222,595.21438 358.40368,595.21438 358.24516,595.21438 C 358.24516,595.21438 358.24516,595.05586 358.08662,595.05586 z M 358.87929,596.79974 C 358.87929,596.79974 358.87929,596.6412 358.87929,596.6412 C 359.03782,596.79974 359.03782,596.79974 359.03782,596.95826 C 359.03782,596.95826 359.03782,597.1168 359.03782,597.1168 C 358.87929,597.27534 358.72076,597.27534 358.72076,597.27534 C 358.72076,597.27534 358.56222,597.27534 358.56222,597.1168 C 358.56222,597.1168 358.72076,597.1168 358.72076,597.1168 C 358.72076,596.95826 358.72076,596.95826 358.87929,596.79974 z M 359.19636,596.32412 C 359.19636,596.32412 359.19636,596.32412 359.3549,596.1656 C 359.3549,596.32412 359.3549,596.32412 359.3549,596.32412 C 359.3549,596.48266 359.51342,596.32412 359.51342,596.48266 C 359.51342,596.48266 359.3549,596.6412 359.51342,596.6412 C 359.51342,596.79974 359.67196,596.95826 359.67196,596.95826 C 359.67196,597.1168 359.8305,597.1168 359.8305,597.27534 C 359.8305,597.27534 359.8305,597.43388 359.8305,597.43388 C 359.51342,597.43388 359.3549,597.5924 359.03782,597.5924 C 359.19636,597.5924 359.19636,597.43388 359.3549,597.43388 C 359.3549,597.43388 359.19636,597.43388 359.19636,597.27534 C 359.19636,597.27534 359.19636,597.27534 359.19636,597.27534 C 359.19636,597.1168 359.19636,597.1168 359.19636,597.1168 C 359.19636,596.95826 359.3549,596.95826 359.3549,596.95826 C 359.19636,596.79974 359.19636,596.6412 359.19636,596.6412 C 359.03782,596.48266 359.19636,596.48266 359.19636,596.32412 z M 360.7817,593.31196 C 358.08662,593.31196 356.02566,595.21438 356.02566,597.5924 C 356.02566,599.8119 358.08662,601.71432 360.7817,601.71432 C 363.31826,601.71432 365.37922,599.8119 365.37922,597.5924 C 365.37922,595.21438 363.31826,593.31196 360.7817,593.31196 z "
   id="path15982" />

<polygon
   style="fill:#0c84ff;fill-opacity:1;fill-rule:nonzero;stroke:none;stroke-width:0.28;stroke-linecap:butt;stroke-linejoin:bevel"
   points="384.3,602.82 390.96,602.82 390.96,604.26 386.28,604.26 386.28,605.34 390.6,605.34 390.6,606.78 386.28,606.78 386.28,608.22 390.96,608.22 390.96,609.84 384.3,609.84 384.3,602.82 "
   id="polygon15984"
   transform="matrix(0.8807486,0,0,0.8807486,50.529217,63.488856)" />

<path
   style="fill:#0c84ff;fill-opacity:1;fill-rule:nonzero;stroke:none;stroke-width:0.28;stroke-linecap:butt;stroke-linejoin:bevel"
   d="M 397.08616,596.79974 C 397.7203,596.79974 398.1959,596.79974 398.83004,596.79974 C 398.83004,596.79974 398.98858,596.79974 399.30565,596.79974 C 399.46418,596.79974 399.62272,596.6412 399.78126,596.6412 C 399.78126,596.48266 399.78126,596.32412 399.78126,596.1656 C 399.78126,596.00706 399.78126,595.84852 399.62272,595.68999 C 399.46418,595.68999 399.14712,595.53146 398.83004,595.53146 L 397.08616,595.53146 L 397.08616,596.79974 z M 395.34228,600.60456 L 395.34228,594.26318 L 398.83004,594.26318 C 399.62272,594.26318 400.09832,594.42172 400.41539,594.42172 C 400.73246,594.58024 401.04953,594.73878 401.3666,595.05586 C 401.52514,595.37292 401.68367,595.68999 401.68367,596.00706 C 401.68367,596.32412 401.52514,596.6412 401.3666,596.95826 C 401.20806,597.1168 401.04953,597.43388 400.73246,597.5924 C 400.57393,597.5924 400.41539,597.75094 400.25686,597.75094 C 400.41539,597.90948 400.41539,597.90948 400.57393,598.06802 C 400.57393,598.06802 400.73246,598.22654 400.891,598.38508 C 401.04953,598.54362 401.04953,598.70216 401.20806,598.70216 C 401.52514,599.33629 402.15928,600.60456 402.15928,600.60456 L 400.09832,600.60456 C 400.09832,600.60456 399.30565,599.33629 398.98858,598.70216 C 398.83004,598.38508 398.67151,598.22654 398.51298,598.22654 C 398.35444,598.06802 397.87884,598.06802 397.7203,598.06802 C 397.56177,598.06802 397.40324,598.06802 397.08616,598.06802 L 397.08616,600.60456 L 395.34228,600.60456 z "
   id="path15986" />

</g>
  </g>
</svg>
