<svg width="96" height="96" viewBox="0 0 96 96" fill="none" xmlns="http://www.w3.org/2000/svg">
<path d="M76 0H20C8.9543 0 0 8.9543 0 20V76C0 87.0457 8.9543 96 20 96H76C87.0457 96 96 87.0457 96 76V20C96 8.9543 87.0457 0 76 0Z" fill="white"/>
<g clip-path="url(#clip0_123:82)">
<path fill-rule="evenodd" clip-rule="evenodd" d="M46.3371 40.6907C42.3075 42.1587 40.2248 46.6326 41.6928 50.6622C43.1608 54.6917 47.6325 56.7753 51.6621 55.3072C55.6917 53.8392 57.7752 49.3675 56.3072 45.3379C54.8391 41.3084 50.3666 39.2226 46.3371 40.6907ZM52.4608 57.4996C47.221 59.4085 41.4093 56.7006 39.5004 51.4609C37.5915 46.2211 40.2986 40.4072 45.5383 38.4983C50.7781 36.5894 56.5906 39.2995 58.4995 44.5392C60.4084 49.779 57.7006 55.5907 52.4608 57.4996V57.4996ZM55.1703 73.069L60.4013 71.1633C60.3504 68.4402 59.9082 65.2562 62.5846 62.7937C65.3716 60.2461 68.586 61.094 71.0906 61.3636L73.4387 56.3163C71.4887 54.4266 68.9068 52.5064 69.0639 48.8682C69.2135 45.4139 71.5482 43.8333 74.0697 41.8319L72.1624 36.5965C69.1186 36.6599 66.1796 37.0179 63.8066 34.4306C61.4503 31.862 62.0186 29.1343 62.3635 25.9094L57.3184 23.5605C55.3064 25.6519 53.4531 28.0903 49.8673 27.9339C46.3989 27.7795 44.8518 25.455 42.8296 22.9311L37.5986 24.8368C37.6523 27.8743 38.0264 30.8099 35.4297 33.1913C34.7517 33.8182 34.0361 34.2602 33.249 34.547C31.4009 35.2203 29.5619 34.9168 26.9102 34.6387L24.5583 39.6824C26.7552 41.8 29.0876 43.5876 28.9347 47.1349C28.781 50.6055 26.4542 52.1461 23.9302 54.1682L25.8375 59.4036C28.8592 59.3408 31.8114 58.978 34.1934 61.5695C36.5878 64.1814 35.9714 66.9613 35.6364 70.0907L40.6824 72.4418C43.2822 69.6942 44.8838 67.9212 48.1326 68.0662C51.6106 68.2196 53.1492 70.5546 55.1703 73.069V73.069ZM62.7522 72.7902L54.4146 75.8277C51.3897 72.1666 50.5267 70.5068 48.0332 70.397C45.4952 70.2811 44.3436 72.069 41.1948 75.2525L33.1517 71.5049C33.5985 66.7803 34.1799 65.0089 32.4735 63.1472C30.7788 61.3036 28.992 61.7162 24.2106 61.7545L21.1723 53.4147C24.8095 50.4059 26.4935 49.5342 26.603 47.0333C26.7125 44.5323 25.159 43.5537 21.7453 40.1957L25.4937 32.1548C29.9719 32.5795 31.9903 33.1778 33.8514 31.4766C35.6972 29.781 35.2771 28.0144 35.2477 23.2099L43.5831 20.1732C46.6102 23.8335 47.4784 25.4939 49.9668 25.6031C52.4936 25.7156 53.6185 23.9772 56.8074 20.7468L64.8452 24.4938C64.3955 29.2443 63.8398 31.0113 65.5256 32.8507C67.219 34.6973 69.0071 34.2818 73.7893 34.2456L76.8284 42.5876C73.1905 45.5942 71.5051 46.4689 71.3955 48.9698C71.2908 51.4293 72.7388 52.357 76.2538 55.8022L72.5085 63.8445C68.0651 63.4269 66.0056 62.8114 64.1688 64.5111C62.3302 66.1991 62.7164 67.8862 62.7522 72.7902" fill="#4A7BB4"/>
</g>
<rect x="25.4431" y="56.9008" width="3.52191" height="8" transform="rotate(20.2064 25.4431 56.9008)" fill="white"/>
<defs>
<clipPath id="clip0_123:82">
<rect width="56" height="56" fill="white" transform="translate(13.1069 31.2761) rotate(-20.0174)"/>
</clipPath>
</defs>
</svg>
