<?xml version="1.0" encoding="UTF-8"?>
<svg width="96px" height="96px" viewBox="0 0 96 96" version="1.1" xmlns="http://www.w3.org/2000/svg" xmlns:xlink="http://www.w3.org/1999/xlink">
    <!-- Generator: Sketch 50.2 (55047) - http://www.bohemiancoding.com/sketch -->
    <title>icn_vr</title>
    <desc>Created with Sketch.</desc>
    <defs>
        <linearGradient x1="15.4700622%" y1="100%" x2="100%" y2="-49.1564686%" id="linearGradient-1">
            <stop stop-color="#38EFCF" offset="0%"></stop>
            <stop stop-color="#3265C1" offset="100%"></stop>
        </linearGradient>
    </defs>
    <g id="Page-1" stroke="none" stroke-width="1" fill="none" fill-rule="evenodd">
        <g id="Large-Devices:-Desktops---12-col-Copy-6" transform="translate(-743.000000, -1156.000000)">
            <g id="icn_vr" transform="translate(743.000000, 1156.000000)">
                <rect id="Rectangle-5-Copy-12" fill="#FFFFFF" x="0" y="0" width="96" height="96" rx="20"></rect>
                <path d="M80.1527326,74.0449796 C73.6005814,64.6862449 71.7730233,56.8573469 74.1145349,45.7928367 C76.5656395,43.8960204 77.8747093,40.9911429 77.8747093,37.2503673 C77.8747093,36.3729388 77.5708721,35.626898 76.9972093,35.0915306 C77.0606977,34.8340408 77.1226744,34.576551 77.1816279,34.3198163 C77.1846512,34.3069796 77.1884302,34.2933878 77.1914535,34.280551 C77.2488953,34.0268367 77.3018023,33.7731224 77.3554651,33.5194082 C77.3917442,33.3487551 77.4280233,33.1773469 77.4612791,33.0082041 C77.5066279,32.7771429 77.5481977,32.5453265 77.5890116,32.3127551 C77.6222674,32.1209592 77.6532558,31.9284082 77.6827326,31.7366122 C77.7175,31.5100816 77.7530233,31.2827959 77.7825,31.0555102 C77.7855233,31.0283265 77.790814,31.0003878 77.794593,30.9732041 C77.7953488,30.9679184 77.7923256,30.9633878 77.7930814,30.958102 C78.0757558,28.7003469 78.0712209,26.3648163 77.4960465,23.8118163 C75.8188953,16.3672653 68.845,11.5580204 59.7291279,11.5580204 C57.6151163,11.5580204 55.4119186,11.8124898 53.18,12.3138776 C45.4918605,14.041551 36.0305814,17.3398367 34.3088372,26.2477755 L19.4011628,28.1340204 C17.7376163,28.3446939 16.5396512,29.8790612 16.7316279,31.5538776 L18.7693023,49.3033061 C18.9469186,50.8663673 20.2831977,52.0450816 21.8764535,52.0450816 L35.0261047,51.774 C35.5037791,55.0171633 36.4712209,58.167449 37.0856977,60.1480816 C37.279186,60.7717959 37.4401744,61.2913061 37.5422093,61.6718776 C37.6805233,62.1898776 37.7689535,62.874 37.8619186,63.5996531 C38.1309884,65.693551 38.4665698,68.3001633 40.3855814,69.3618367 C42.9205814,70.7640612 45.2832558,70.8780816 47.4025581,70.8780816 C47.610407,70.8780816 47.8167442,70.8780816 48.0200581,70.8765714 L48.020814,70.8765714 L48.020814,83.3282041 C48.020814,83.7087755 48.3057558,84.0319592 48.6851744,84.0772653 C50.6812791,84.3204082 52.7061047,84.4427347 54.7006977,84.4427347 C54.7014535,84.4427347 54.7014535,84.4427347 54.7022093,84.4427347 C62.0577907,84.4427347 72.4298256,82.8056735 80.0726163,75.0054694 C80.3273256,74.7457143 80.3605814,74.3432449 80.1527326,74.0449796 Z M70.1903488,36.4016327 L58.5757558,37.8159388 L58.1033721,33.947551 L76.1461628,31.7486939 C76.1340698,31.8211837 76.1257558,31.8929184 76.1136628,31.9654082 C76.0698256,32.2198776 76.0199419,32.4766122 75.9700581,32.7333469 C75.9337791,32.9168367 75.9005233,33.0995714 75.8619767,33.2830612 C75.7841279,33.6470204 75.6987209,34.0192857 75.6087791,34.3953265 C75.2437209,34.3137755 74.8544767,34.2714898 74.4380233,34.3039592 C72.9951744,34.413449 71.6256395,35.0922857 70.1903488,36.4016327 Z M46.9014535,47.5680816 L44.9514535,28.197449 L49.8173837,30.6137755 L51.4431395,43.3153469 L46.9014535,47.5680816 Z M52.8822093,42.6493469 L51.3758721,30.8727755 L56.3604651,30.8727755 C57.4473256,30.8727755 58.3898256,31.4594898 58.9188953,32.327102 L57.1706977,32.5392857 C56.9711628,32.5642041 56.7905233,32.6661429 56.6673256,32.8239592 C56.5433721,32.9817755 56.4881977,33.1826327 56.5123837,33.3804694 L57.1676744,38.7484898 C57.2145349,39.1313265 57.5395349,39.4122245 57.916686,39.4122245 C57.9469186,39.4122245 57.977907,39.4099592 58.0088953,39.4069388 L59.2287791,39.2581837 C58.9959884,40.3508163 58.1887791,41.2274898 57.0641279,41.5287755 L52.8822093,42.6493469 Z M53.5125581,13.7870816 C55.6356395,13.3098571 57.7269767,13.0682245 59.7298837,13.0682245 C68.239593,13.0682245 74.4826163,17.311898 76.0206977,24.1433061 C76.5013953,26.2742041 76.5414535,28.2669184 76.3487209,30.2022449 L60.5325581,32.1300204 C59.8425,30.5073061 58.2318605,29.3625714 56.3604651,29.3625714 L50.6941279,29.3625714 L43.4133721,25.7463878 C43.2901744,25.6731429 43.1631977,25.6119796 43.0331977,25.5576122 L42.9402326,25.511551 C42.9145349,25.4979592 42.8865698,25.4987143 42.8593605,25.4896531 C42.4217442,25.3393878 41.9538953,25.282 41.4520349,25.3439184 L35.8892442,26.0484286 C37.2912791,20.0536735 42.9863372,16.1528163 53.5125581,13.7870816 Z M21.8764535,51.2899796 L21.8764535,50.5348776 C21.0518605,50.5348776 20.3618023,49.931551 20.2703488,49.1326531 L18.2326744,31.3832245 C18.1344186,30.5246735 18.7443605,29.7401224 19.5916279,29.632898 L41.6417442,26.8427959 C41.7211047,26.8322245 41.8004651,26.8276939 41.878314,26.8276939 C42.0400581,26.8276939 42.1927326,26.8533673 42.3386047,26.9001837 L42.7369186,27.0980204 C42.7724419,27.1214286 42.8079651,27.1425714 42.8427326,27.169 C43.1979651,27.4491429 43.3929651,27.8047959 43.438314,28.2555918 L45.4601163,48.3397959 C45.4827907,48.5670816 45.4631395,48.777 45.4011628,48.9740816 L44.5894186,49.7352245 C44.5100581,49.8092245 44.4518605,49.8975714 44.4125581,49.9919592 C44.2674419,50.0417959 44.1147674,50.0757755 43.9492442,50.0787959 L21.9134884,50.5356327 L21.8764535,51.2899796 Z M54.7022093,82.9325306 C52.9880233,82.9325306 51.2526744,82.8396531 49.5324419,82.653898 L49.5324419,70.8418367 C55.4875,70.5156327 60.2143605,66.9840204 64.7469767,59.4979388 C64.9631395,59.1407755 64.8490116,58.6763878 64.4915116,58.4611837 C64.1332558,58.2444694 63.669186,58.3592449 63.4537791,58.7164082 C58.9952326,66.0801633 54.4187791,69.3633469 48.6163953,69.3633469 L48.0125,69.3663673 C45.8153488,69.378449 43.5562209,69.3897755 41.1179651,68.0404082 C39.8686047,67.3502449 39.5987791,65.2548367 39.3614535,63.4063469 C39.261686,62.6293469 39.1672093,61.8961429 39.0024419,61.2814898 C38.8958721,60.8865714 38.7303488,60.3496939 38.5293023,59.7018163 C37.9420349,57.8065102 37.0206977,54.8057347 36.5498256,51.7422857 L43.9787209,51.589 C44.8509302,51.5716327 45.6241279,51.2054082 46.2136628,50.5333673 C46.3920349,50.3294898 46.5288372,50.1074898 46.6459884,49.8771837 L52.6206977,44.2826327 L57.4548837,42.9883878 C59.3149419,42.4907755 60.5952907,40.9450816 60.7789535,39.0709184 L69.2115698,38.0432245 C69.2516279,38.1338367 69.3090698,38.2176531 69.385407,38.2901429 C69.69,38.5755714 70.1676744,38.5604694 70.4533721,38.2569184 C71.9272093,36.6893265 73.2302326,35.9123265 74.552907,35.8103878 C75.1454651,35.7643265 75.645814,35.9002449 75.9602326,36.1909592 C76.2262791,36.4371224 76.360814,36.7942857 76.360814,37.2511224 C76.360814,43.715551 72.1501744,45.8623061 68.6175,46.5245306 C68.207093,46.601551 67.9372674,46.9957143 68.0143605,47.4057347 C68.0823837,47.7681837 68.3998256,48.0211429 68.755814,48.0211429 C68.8026744,48.0211429 68.8487791,48.0166122 68.8963953,48.007551 C70.1744767,47.7689388 71.3187791,47.3876122 72.3376163,46.8884898 C70.3672093,57.4629388 72.2756395,65.2427551 78.5511628,74.3893061 C71.3195349,81.4366735 61.6262209,82.9325306 54.7022093,82.9325306 Z" id="Shape" fill="url(#linearGradient-1)" fill-rule="nonzero"></path>
                <path d="M47.837907,55.6627755 L46.0587209,55.1243878 C45.4971512,54.9544898 45.0005814,55.1553469 44.6015116,55.3161837 C44.3573837,55.4166122 44.1313953,55.5094898 43.9318605,55.5004286 C43.702093,55.4898571 43.5290116,55.4 43.2886628,55.2746531 C43.0082558,55.1304286 42.6598256,54.948449 42.2025581,54.9280612 C41.5631395,54.9016327 40.9116279,55.1568571 40.3976744,55.3645102 C40.2850581,55.4105714 40.1747093,55.4543673 40.0688953,55.4943878 C39.6773837,55.6401224 39.4793605,56.0758163 39.6252326,56.4662041 C39.7703488,56.8573469 40.2064535,57.0544286 40.5972093,56.9086939 C40.7151163,56.8656531 40.8375581,56.8158163 40.9645349,56.7644694 C41.3605814,56.6036327 41.8261628,56.4254286 42.1337791,56.4367551 C42.2509302,56.4412857 42.3771512,56.5047143 42.5902907,56.6149592 C42.889593,56.7697551 43.3,56.983449 43.8630814,57.0083673 C44.3709884,57.0302653 44.819186,56.8565918 45.1683721,56.7146327 C45.3218023,56.6542245 45.5568605,56.5628571 45.619593,56.568898 L47.3987791,57.1072857 C47.472093,57.1291837 47.545407,57.1412653 47.6179651,57.1412653 C47.9429651,57.1397551 48.2422674,56.9305918 48.3412791,56.6043878 C48.4629651,56.2056939 48.2369767,55.7843469 47.837907,55.6627755 Z" id="Shape" fill="url(#linearGradient-1)" fill-rule="nonzero"></path>
                <path d="M45.306686,57.8676735 C44.5070349,58.3056327 43.6824419,58.2588163 42.7044186,57.7189184 C42.3408721,57.5180612 41.8798256,57.6509592 41.6780233,58.0156735 C41.4762209,58.3811429 41.6092442,58.8402449 41.975814,59.0418571 C42.7406977,59.4639592 43.486686,59.6746327 44.2069767,59.6746327 C44.8365698,59.6746327 45.4472674,59.5137959 46.0337791,59.1921224 C46.399593,58.9912653 46.5341279,58.5329184 46.3330814,58.167449 C46.1327907,57.8012245 45.6732558,57.6675714 45.306686,57.8676735 Z" id="Shape" fill="url(#linearGradient-1)" fill-rule="nonzero"></path>
                <path d="M41.3303488,29.3240612 C40.7672674,28.8800612 40.115,28.6943061 39.3788372,28.7871837 L22.0389535,30.9815102 C20.6422093,31.1582041 19.6384884,32.4456531 19.8002326,33.8501429 L19.9022674,34.7336122 L21.4018023,34.5523878 L21.3012791,33.6779796 C21.2340116,33.0912653 21.6504651,32.5543878 22.2294186,32.4803878 L39.5685465,30.2860612 C39.6244767,30.2792653 39.6796512,30.2754898 39.7340698,30.2754898 C39.9812209,30.2754898 40.1905814,30.3494898 40.3931395,30.5095714 C40.6395349,30.7036327 40.7695349,30.9407347 40.8005233,31.2533469 L40.895,32.1926939 L42.3960465,32.0107143 L42.304593,31.1030816 C42.2327907,30.3842245 41.8956977,29.7695714 41.3303488,29.3240612 Z" id="Shape" fill="url(#linearGradient-1)" fill-rule="nonzero"></path>
                <rect id="Rectangle-5" fill="#FFFFFF" x="47" y="82" width="5" height="3"></rect>
            </g>
        </g>
    </g>
</svg>