<?xml version="1.0" encoding="UTF-8"?>
<svg width="96px" height="96px" viewBox="0 0 96 96" version="1.1" xmlns="http://www.w3.org/2000/svg" xmlns:xlink="http://www.w3.org/1999/xlink">
    <!-- Generator: Sketch 50.2 (55047) - http://www.bohemiancoding.com/sketch -->
    <title>icn_app</title>
    <desc>Created with Sketch.</desc>
    <defs>
        <linearGradient x1="-21.6703869%" y1="167.131761%" x2="100%" y2="-48.5853876%" id="linearGradient-1">
            <stop stop-color="#38EFCF" offset="0%"></stop>
            <stop stop-color="#3265C1" offset="100%"></stop>
        </linearGradient>
    </defs>
    <g id="Page-1" stroke="none" stroke-width="1" fill="none" fill-rule="evenodd">
        <g id="Large-Devices:-Desktops---12-col-Copy-6" transform="translate(-423.000000, -1156.000000)">
            <g id="icn_app" transform="translate(423.000000, 1156.000000)">
                <g id="Group-2" fill="#FFFFFF">
                    <rect id="Rectangle-5-Copy-13" x="0" y="0" width="96" height="96" rx="20"></rect>
                </g>
                <path d="M33.4615385,13.7954545 C29.8958176,13.7954545 27,16.6473977 27,20.1590909 L27,75.8409091 C27,79.3526023 29.8958176,82.2045455 33.4615385,82.2045455 L57.6923077,82.2045455 C57.9835905,82.2086025 58.2545273,82.0578833 58.4013709,81.8101011 C58.5482144,81.562319 58.5482144,81.2558628 58.4013709,81.0080807 C58.2545273,80.7602985 57.9835905,80.6095793 57.6923077,80.6136364 L33.4615385,80.6136364 C30.7627994,80.6136364 28.6153846,78.4987614 28.6153846,75.8409091 L28.6153846,69.4772727 L67.3846154,69.4772727 L67.3846154,75.8409091 C67.3846154,78.4987614 65.2372006,80.6136364 62.5384615,80.6136364 C62.2471787,80.6095793 61.976242,80.7602985 61.8293984,81.0080807 C61.6825548,81.2558628 61.6825548,81.562319 61.8293984,81.8101011 C61.976242,82.0578833 62.2471787,82.2086025 62.5384615,82.2045455 C66.1041824,82.2045455 69,79.3526023 69,75.8409091 L69,20.1590909 C69,16.6473977 66.1041824,13.7954545 62.5384615,13.7954545 L33.4615385,13.7954545 Z M33.4615385,15.3863636 L62.5384615,15.3863636 C65.2372006,15.3863636 67.3846154,17.5012386 67.3846154,20.1590909 L67.3846154,21.75 L28.6153846,21.75 L28.6153846,20.1590909 C28.6153846,17.5012386 30.7627994,15.3863636 33.4615385,15.3863636 Z M28.6153846,23.3409091 L67.3846154,23.3409091 L67.3846154,67.8863636 L28.6153846,67.8863636 L28.6153846,23.3409091 Z M47.8990385,32.0909091 C47.790441,32.1117819 47.6873686,32.1540781 47.5961538,32.2151989 L36.2884615,38.5788352 C36.0425285,38.7181579 35.8893262,38.9727697 35.8846154,39.25 L35.8846154,51.9772727 C35.8893262,52.254503 36.0425285,52.5091148 36.2884615,52.6484375 L47.5961538,59.0120739 C47.8462877,59.1518607 48.1537123,59.1518607 48.4038462,59.0120739 L59.7115385,52.6484375 C59.9574715,52.5091148 60.1106738,52.254503 60.1153846,51.9772727 L60.1153846,39.25 C60.1106738,38.9727697 59.9574715,38.7181579 59.7115385,38.5788352 L48.4038462,32.2151989 C48.297645,32.1474127 48.1766175,32.1048434 48.0504808,32.0909091 C48.0001102,32.0863102 47.949409,32.0863102 47.8990385,32.0909091 Z M48,33.806108 L57.6923077,39.25 L48,44.693892 L38.3076923,39.25 L48,33.806108 Z M37.5252404,40.6171875 L47.1923077,46.0610795 L47.1923077,56.9737216 L37.5252404,51.5298295 L37.5252404,40.6171875 Z M58.4747596,40.6171875 L58.4747596,51.5298295 L48.8076923,56.9737216 L48.8076923,46.0610795 L58.4747596,40.6171875 Z M48,73.4545455 C47.1078481,73.4545455 46.3846154,74.1668201 46.3846154,75.0454545 C46.3846154,75.924089 47.1078481,76.6363636 48,76.6363636 C48.8921519,76.6363636 49.6153846,75.924089 49.6153846,75.0454545 C49.6153846,74.1668201 48.8921519,73.4545455 48,73.4545455 Z" id="Shape" fill="url(#linearGradient-1)" fill-rule="nonzero"></path>
            </g>
        </g>
    </g>
</svg>