<svg width="96" height="96" viewBox="0 0 96 96" fill="none" xmlns="http://www.w3.org/2000/svg">
<path d="M76 0H20C8.9543 0 0 8.9543 0 20V76C0 87.0457 8.9543 96 20 96H76C87.0457 96 96 87.0457 96 76V20C96 8.9543 87.0457 0 76 0Z" fill="white"/>
<path d="M25.7939 50.9429C25.9369 51.4764 26.4852 51.7929 27.0187 51.65L30.3347 50.7615C30.8682 50.6185 31.1847 50.0702 31.0418 49.5367L30.2189 46.4658L26.9893 44.9083L24.9711 47.872L25.7939 50.9429Z" fill="#4693BA"/>
<path d="M22.6555 39.2303C22.5126 38.6969 22.8292 38.1485 23.3627 38.0056L26.6787 37.1171C27.2121 36.9741 27.7605 37.2907 27.9034 37.8242L28.7263 40.8951L26.7081 43.8588L23.4784 42.3012L22.6555 39.2303Z" fill="#4693BA"/>
<path d="M20.2893 43.3287C19.7558 43.4716 19.4392 44.02 19.5822 44.5535L20.4707 47.8695C20.6137 48.4029 21.162 48.7195 21.6955 48.5766L24.7664 47.7537L26.3239 44.5241L23.3602 42.5059L20.2893 43.3287Z" fill="#4693BA"/>
<path d="M32.0018 40.1903C32.5353 40.0474 33.0837 40.364 33.2266 40.8974L34.1151 44.2135C34.2581 44.7469 33.9415 45.2953 33.408 45.4382L30.3371 46.2611L27.3734 44.2429L28.9309 41.0132L32.0018 40.1903Z" fill="#4693BA"/>
<path d="M43.0812 29.3471L44.0471 29.0883L43.7883 28.1224L42.8224 28.3812L43.0812 29.3471ZM28.912 33.1438L28.6532 32.1779L28.6532 32.1779L28.912 33.1438ZM43.0812 29.3472L42.1153 29.606L42.3741 30.5719L43.3401 30.3131L43.0812 29.3472ZM56.1535 25.8445L55.8947 24.8786L55.8947 24.8786L56.1535 25.8445ZM58.2658 24.1017L59.1511 24.5667L59.1511 24.5667L58.2658 24.1017ZM65.0373 21.2143L64.9609 20.2172L64.9609 20.2172L65.0373 21.2143ZM82.9802 60.8412L82.4547 59.9904L82.4547 59.9904L82.9802 60.8412ZM65.9049 53.43L66.7577 52.9079L65.8584 51.4391L65.0286 52.9482L65.9049 53.43ZM53.0778 54.2294L53.8876 53.6426L53.4837 53.0854L52.819 53.2635L53.0778 54.2294ZM48.8745 55.3557L47.9086 55.6145L48.1674 56.5805L49.1333 56.3216L48.8745 55.3557ZM48.8745 55.3557L49.8404 55.0968L49.5816 54.1309L48.6157 54.3897L48.8745 55.3557ZM45.8155 56.1753L45.5567 55.2094L44.892 55.3875L44.8209 56.072L45.8155 56.1753ZM34.2609 61.8683L34.7849 61.0166L33.3038 60.1053L33.2612 61.8438L34.2609 61.8683ZM23.1778 76.8652L23.2074 75.8656L23.2074 75.8656L23.1778 76.8652ZM18.9033 33.5758L19.3357 34.4774L19.3357 34.4774L18.9033 33.5758ZM26.2113 32.6906L25.6771 33.536L25.6771 33.536L26.2113 32.6906ZM42.8224 28.3812L28.6532 32.1779L29.1708 34.1097L43.34 30.3131L42.8224 28.3812ZM44.0472 29.0884L44.0471 29.0883L42.1153 29.606L42.1153 29.606L44.0472 29.0884ZM55.8947 24.8786L42.8224 28.3813L43.3401 30.3131L56.4124 26.8104L55.8947 24.8786ZM57.3805 23.6366C57.1859 24.0072 57.0713 24.2104 56.8932 24.3844C56.7332 24.5407 56.4621 24.7265 55.8947 24.8786L56.4123 26.8104C57.2378 26.5892 57.8361 26.2591 58.2907 25.8151C58.7272 25.3887 58.9723 24.9071 59.1511 24.5667L57.3805 23.6366ZM64.9609 20.2172C62.1746 20.4306 60.4605 20.8759 59.3378 21.507C58.1428 22.1787 57.7067 23.0157 57.3805 23.6366L59.1511 24.5667C59.4364 24.0236 59.6486 23.6266 60.3178 23.2504C61.0592 22.8337 62.4251 22.4173 65.1137 22.2113L64.9609 20.2172ZM83.5056 61.692C84.7397 60.9299 85.2978 59.5382 85.4857 58.0189C85.6757 56.4824 85.517 54.6151 85.1239 52.587C84.3354 48.5197 82.5544 43.5634 80.3363 38.7965C78.1168 34.0265 75.4311 29.3852 72.8002 25.9554C71.4869 24.2434 70.1613 22.7989 68.8879 21.7918C67.6471 20.8104 66.2938 20.1151 64.9609 20.2172L65.1137 22.2113C65.6768 22.1682 66.521 22.4697 67.6472 23.3604C68.7409 24.2254 69.9521 25.5285 71.2133 27.1727C73.7313 30.4554 76.3459 34.9614 78.523 39.6403C80.7016 44.3222 82.4139 49.1163 83.1604 52.9677C83.5348 54.8989 83.6542 56.5331 83.5008 57.7734C83.3453 59.031 82.9386 59.6915 82.4547 59.9904L83.5056 61.692ZM65.052 53.9522C67.9644 58.709 71.2768 61.4431 74.556 62.5831C77.8484 63.7277 81.0157 63.2298 83.5056 61.692L82.4547 59.9904C80.4648 61.2194 77.9235 61.6364 75.2127 60.694C72.4886 59.747 69.5033 57.3922 66.7577 52.9079L65.052 53.9522ZM61.4668 58.079C63.825 57.4471 65.6917 55.8932 66.7812 53.9119L65.0286 52.9482C64.1909 54.4718 62.7595 55.6621 60.9491 56.1472L61.4668 58.079ZM52.2681 54.8162C54.2996 57.6195 57.9202 59.0293 61.4668 58.079L60.9491 56.1472C58.2294 56.8759 55.4488 55.7969 53.8876 53.6426L52.2681 54.8162ZM49.1333 56.3216L53.3367 55.1954L52.819 53.2635L48.6157 54.3898L49.1333 56.3216ZM47.9086 55.6145L47.9086 55.6145L49.8404 55.0969L49.8404 55.0968L47.9086 55.6145ZM46.0744 57.1412L49.1333 56.3216L48.6157 54.3897L45.5567 55.2094L46.0744 57.1412ZM40.4753 63.7037C44.0219 62.7534 46.4525 59.7221 46.8102 56.2786L44.8209 56.072C44.546 58.7183 42.6774 61.0431 39.9577 61.7718L40.4753 63.7037ZM33.7368 62.72C35.6801 63.9156 38.0957 64.3413 40.4753 63.7037L39.9577 61.7718C38.1309 62.2613 36.2793 61.9361 34.7849 61.0166L33.7368 62.72ZM23.1481 77.8647C26.0771 77.9516 29.0729 76.7961 31.3529 74.1517C33.6237 71.518 35.1234 67.4834 35.2606 61.8928L33.2612 61.8438C33.1318 67.1153 31.7249 70.6574 29.8382 72.8457C27.9607 75.0232 25.5482 75.935 23.2074 75.8656L23.1481 77.8647ZM18.4709 32.6741C17.2656 33.2521 16.4412 34.5309 15.8573 36.0012C15.2581 37.5102 14.8324 39.4239 14.551 41.5632C13.9875 45.849 13.9823 51.2113 14.4451 56.452C14.9076 61.6892 15.8434 66.872 17.1942 70.7887C17.8678 72.7416 18.664 74.4381 19.5968 75.6737C20.5192 76.8955 21.6983 77.8217 23.1481 77.8647L23.2074 75.8656C22.639 75.8487 21.9565 75.48 21.193 74.4687C20.44 73.4712 19.7263 71.9963 19.0849 70.1366C17.8058 66.4279 16.8916 61.42 16.4373 56.276C15.9834 51.1354 15.9946 45.9258 16.534 41.8239C16.8041 39.7694 17.2015 38.0353 17.7161 36.7394C18.2461 35.4049 18.8264 34.7217 19.3357 34.4774L18.4709 32.6741ZM26.7454 31.8452C26.1525 31.4706 25.3564 30.9638 23.9856 30.9795C22.6978 30.9943 20.9907 31.4657 18.4709 32.6741L19.3357 34.4774C21.7671 33.3115 23.1582 32.9892 24.0086 32.9794C24.7762 32.9706 25.1585 33.2083 25.6771 33.536L26.7454 31.8452ZM28.6532 32.1779C28.0858 32.3299 27.7581 32.3045 27.5414 32.2491C27.3002 32.1875 27.0993 32.0688 26.7454 31.8452L25.6771 33.536C26.0022 33.7414 26.4552 34.0359 27.0464 34.1869C27.6621 34.3442 28.3454 34.3309 29.1708 34.1097L28.6532 32.1779Z" fill="#4693BA"/>
<circle cx="38.2358" cy="55.3941" r="4.433" transform="rotate(-15 38.2358 55.3941)" stroke="#4693BA" stroke-width="2"/>
<circle cx="59.2274" cy="49.7693" r="4.433" transform="rotate(-15 59.2274 49.7693)" stroke="#4693BA" stroke-width="2"/>
<circle cx="65.7583" cy="38.4575" r="2.7165" transform="rotate(-15 65.7583 38.4575)" fill="#4693BA"/>
<circle cx="63.5084" cy="30.0609" r="2.7165" transform="rotate(-15 63.5084 30.0609)" fill="#4693BA"/>
<circle cx="68.8317" cy="33.1341" r="2.7165" transform="rotate(-15 68.8317 33.1341)" fill="#4693BA"/>
<circle cx="60.4351" cy="35.384" r="2.7165" transform="rotate(-15 60.4351 35.384)" fill="#4693BA"/>
<rect x="33.3766" y="31.4375" width="19.732" height="13.2124" rx="2" transform="rotate(-15 33.3766 31.4375)" stroke="#4693BA" stroke-width="2"/>
<rect x="73.4431" y="55.9008" width="3.52191" height="8" transform="rotate(20.2064 73.4431 55.9008)" fill="white"/>
</svg>
