<svg width="96" height="96" viewBox="0 0 96 96" fill="none" xmlns="http://www.w3.org/2000/svg">
<path d="M76 0H20C8.9543 0 0 8.9543 0 20V76C0 87.0457 8.9543 96 20 96H76C87.0457 96 96 87.0457 96 76V20C96 8.9543 87.0457 0 76 0Z" fill="white"/>
<path d="M80.1527 74.0449C73.6006 64.6862 71.773 56.8573 74.1145 45.7928C76.5656 43.896 77.8747 40.9911 77.8747 37.2503C77.8747 36.3729 77.5709 35.6269 76.9972 35.0915C77.0607 34.834 77.1227 34.5765 77.1816 34.3198C77.1846 34.3069 77.1884 34.2934 77.1915 34.2805C77.2489 34.0268 77.3018 33.7731 77.3555 33.5194C77.3917 33.3487 77.428 33.1773 77.4613 33.0082C77.5066 32.7771 77.5482 32.5453 77.589 32.3127C77.6223 32.1209 77.6533 31.9284 77.6827 31.7366C77.7175 31.51 77.753 31.2828 77.7825 31.0555C77.7855 31.0283 77.7908 31.0004 77.7946 30.9732C77.7953 30.9679 77.7923 30.9634 77.7931 30.9581C78.0758 28.7003 78.0712 26.3648 77.496 23.8118C75.8189 16.3672 68.845 11.558 59.7291 11.558C57.6151 11.558 55.4119 11.8125 53.18 12.3138C45.4919 14.0415 36.0306 17.3398 34.3088 26.2477L19.4012 28.134C17.7376 28.3447 16.5397 29.879 16.7316 31.5538L18.7693 49.3033C18.9469 50.8663 20.2832 52.045 21.8765 52.045L35.0261 51.774C35.5038 55.0171 36.4712 58.1674 37.0857 60.148C37.2792 60.7718 37.4402 61.2913 37.5422 61.6718C37.6805 62.1898 37.769 62.874 37.8619 63.5996C38.131 65.6935 38.4666 68.3001 40.3856 69.3618C42.9206 70.764 45.2833 70.878 47.4026 70.878C47.6104 70.878 47.8167 70.878 48.0201 70.8765H48.0208V83.3282C48.0208 83.7087 48.3058 84.0319 48.6852 84.0772C50.6813 84.3204 52.7061 84.4427 54.7007 84.4427C54.7015 84.4427 54.7015 84.4427 54.7022 84.4427C62.0578 84.4427 72.4298 82.8056 80.0726 75.0054C80.3273 74.7457 80.3606 74.3432 80.1527 74.0449ZM70.1903 36.4016L58.5758 37.8159L58.1034 33.9475L76.1462 31.7487C76.1341 31.8211 76.1258 31.8929 76.1137 31.9654C76.0698 32.2198 76.0199 32.4766 75.9701 32.7333C75.9338 32.9168 75.9005 33.0995 75.862 33.283C75.7841 33.647 75.6987 34.0192 75.6088 34.3953C75.2437 34.3137 74.8545 34.2715 74.438 34.3039C72.9952 34.4134 71.6256 35.0922 70.1903 36.4016ZM46.9015 47.568L44.9515 28.1974L49.8174 30.6137L51.4431 43.3153L46.9015 47.568ZM52.8822 42.6493L51.3759 30.8727H56.3605C57.4473 30.8727 58.3898 31.4595 58.9189 32.3271L57.1707 32.5392C56.9712 32.5642 56.7905 32.6661 56.6673 32.8239C56.5434 32.9817 56.4882 33.1826 56.5124 33.3804L57.1677 38.7485C57.2145 39.1313 57.5395 39.4122 57.9167 39.4122C57.9469 39.4122 57.9779 39.4099 58.0089 39.4069L59.2288 39.2581C58.996 40.3508 58.1888 41.2275 57.0641 41.5287L52.8822 42.6493ZM53.5126 13.787C55.6356 13.3098 57.727 13.0682 59.7299 13.0682C68.2396 13.0682 74.4826 17.3119 76.0207 24.1433C76.5014 26.2742 76.5415 28.2669 76.3487 30.2022L60.5326 32.13C59.8425 30.5073 58.2319 29.3625 56.3605 29.3625H50.6941L43.4134 25.7464C43.2902 25.6731 43.1632 25.6119 43.0332 25.5576L42.9402 25.5115C42.9145 25.4979 42.8866 25.4987 42.8594 25.4896C42.4217 25.3394 41.9539 25.282 41.452 25.3439L35.8892 26.0484C37.2913 20.0536 42.9863 16.1528 53.5126 13.787ZM21.8765 51.2899V50.5348C21.0519 50.5348 20.3618 49.9315 20.2703 49.1326L18.2327 31.3832C18.1344 30.5246 18.7444 29.7401 19.5916 29.6329L41.6417 26.8428C41.7211 26.8322 41.8005 26.8277 41.8783 26.8277C42.0401 26.8277 42.1927 26.8533 42.3386 26.9001L42.7369 27.098C42.7724 27.1214 42.808 27.1425 42.8427 27.169C43.198 27.4491 43.393 27.8048 43.4383 28.2556L45.4601 48.3398C45.4828 48.567 45.4631 48.777 45.4012 48.974L44.5894 49.7352C44.5101 49.8092 44.4519 49.8975 44.4126 49.9919C44.2674 50.0418 44.1148 50.0757 43.9492 50.0788L21.9135 50.5356L21.8765 51.2899ZM54.7022 82.9325C52.988 82.9325 51.2527 82.8396 49.5324 82.6539V70.8418C55.4875 70.5156 60.2144 66.984 64.747 59.4979C64.9631 59.1407 64.849 58.6764 64.4915 58.4611C64.1333 58.2444 63.6692 58.3592 63.4538 58.7164C58.9952 66.0801 54.4188 69.3633 48.6164 69.3633L48.0125 69.3663C45.8153 69.3784 43.5562 69.3897 41.118 68.0404C39.8686 67.3502 39.5988 65.2548 39.3615 63.4063C39.2617 62.6293 39.1672 61.8961 39.0024 61.2815C38.8959 60.8865 38.7303 60.3497 38.5293 59.7018C37.942 57.8065 37.0207 54.8057 36.5498 51.7422L43.9787 51.589C44.8509 51.5716 45.6241 51.2054 46.2137 50.5333C46.392 50.3295 46.5288 50.1074 46.646 49.8771L52.6207 44.2826L57.4549 42.9883C59.3149 42.4907 60.5953 40.945 60.779 39.0709L69.2116 38.0432C69.2516 38.1338 69.3091 38.2176 69.3854 38.2901C69.69 38.5755 70.1677 38.5604 70.4534 38.2569C71.9272 36.6893 73.2302 35.9123 74.5529 35.8103C75.1455 35.7643 75.6458 35.9002 75.9602 36.1909C76.2263 36.4371 76.3608 36.7942 76.3608 37.2511C76.3608 43.7155 72.1502 45.8623 68.6175 46.5245C68.2071 46.6015 67.9373 46.9957 68.0144 47.4057C68.0824 47.7681 68.3998 48.0211 68.7558 48.0211C68.8027 48.0211 68.8488 48.0166 68.8964 48.0075C70.1745 47.7689 71.3188 47.3876 72.3376 46.8885C70.3672 57.4629 72.2756 65.2427 78.5512 74.3893C71.3195 81.4366 61.6262 82.9325 54.7022 82.9325Z" fill="#3B94A7"/>
<path d="M47.8379 55.6628L46.0587 55.1244C45.4971 54.9545 45.0006 55.1553 44.6015 55.3162C44.3574 55.4166 44.1314 55.5095 43.9319 55.5004C43.7021 55.4898 43.529 55.4 43.2887 55.2746C43.0082 55.1304 42.6598 54.9484 42.2025 54.928C41.5631 54.9016 40.9116 55.1568 40.3977 55.3645C40.285 55.4106 40.1747 55.4543 40.0689 55.4944C39.6774 55.6401 39.4794 56.0758 39.6252 56.4662C39.7703 56.8573 40.2064 57.0544 40.5972 56.9087C40.7151 56.8656 40.8375 56.8158 40.9645 56.7644C41.3606 56.6036 41.8262 56.4254 42.1338 56.4367C42.2509 56.4413 42.3771 56.5047 42.5903 56.6149C42.8896 56.7697 43.3 56.9834 43.8631 57.0083C44.371 57.0302 44.8192 56.8566 45.1684 56.7146C45.3218 56.6542 45.5569 56.5628 45.6196 56.5689L47.3988 57.1073C47.4721 57.1292 47.5454 57.1412 47.618 57.1412C47.943 57.1397 48.2423 56.9306 48.3413 56.6044C48.463 56.2057 48.237 55.7843 47.8379 55.6628Z" fill="#3B94A7"/>
<path d="M45.3067 57.8676C44.5071 58.3056 43.6825 58.2588 42.7045 57.7189C42.3409 57.518 41.8799 57.6509 41.6781 58.0156C41.4763 58.3811 41.6093 58.8402 41.9759 59.0418C42.7407 59.4639 43.4867 59.6746 44.207 59.6746C44.8366 59.6746 45.4473 59.5138 46.0338 59.1921C46.3996 58.9912 46.5342 58.5329 46.3331 58.1674C46.1328 57.8012 45.6733 57.6675 45.3067 57.8676Z" fill="#3B94A7"/>
<path d="M41.3303 29.3241C40.7672 28.8801 40.115 28.6944 39.3788 28.7872L22.0389 30.9816C20.6422 31.1583 19.6384 32.4457 19.8002 33.8502L19.9022 34.7337L21.4018 34.5524L21.3012 33.678C21.234 33.0913 21.6504 32.5544 22.2294 32.4804L39.5685 30.2861C39.6244 30.2793 39.6796 30.2755 39.734 30.2755C39.9812 30.2755 40.1905 30.3495 40.3931 30.5096C40.6395 30.7037 40.7695 30.9408 40.8005 31.2534L40.895 32.1927L42.396 32.0108L42.3045 31.1031C42.2327 30.3843 41.8957 29.7696 41.3303 29.3241Z" fill="#3B94A7"/>
<path d="M52 82H47V85H52V82Z" fill="white"/>
</svg>
