<?xml version="1.0" encoding="UTF-8" standalone="no"?>
<svg
   xmlns:dc="http://purl.org/dc/elements/1.1/"
   xmlns:cc="http://creativecommons.org/ns#"
   xmlns:rdf="http://www.w3.org/1999/02/22-rdf-syntax-ns#"
   xmlns:svg="http://www.w3.org/2000/svg"
   xmlns="http://www.w3.org/2000/svg"
   viewBox="0 0 1500 427.24499"
   height="427.245"
   width="1500"
   xml:space="preserve"
   id="svg2"
   version="1.1"><metadata
     id="metadata8"><rdf:RDF><cc:Work
         rdf:about=""><dc:format>image/svg+xml</dc:format><dc:type
           rdf:resource="http://purl.org/dc/dcmitype/StillImage" /><dc:title></dc:title></cc:Work></rdf:RDF></metadata><defs
     id="defs6"><clipPath
       id="clipPath18"
       clipPathUnits="userSpaceOnUse"><path
         id="path16"
         d="M 0,595.276 H 841.89 V 0 H 0 Z" /></clipPath></defs><g
     transform="matrix(1.3333333,0,0,-1.3333333,0,427.24498)"
     id="g10"><g
       transform="matrix(1.4572539,0,0,1.4572539,-58.290159,-294.63929)"
       id="g12"><g
         clip-path="url(#clipPath18)"
         id="g14"><path
           id="path20"
           style="fill:#ed1294;fill-opacity:1;fill-rule:nonzero;stroke:none"
           d="m 784.824,259.17 -69.299,-27.907 c 0,-0.279 0.023,-0.562 0.023,-0.84 0,-9.291 -3.646,-17.719 -9.565,-23.972 H 812 v 36.016 c -11.531,0.871 -21.485,7.334 -27.176,16.703" /><path
           id="path22"
           style="fill:#ed1294;fill-opacity:1;fill-rule:nonzero;stroke:none"
           d="M 598.605,419.844 V 310.77 l 45.077,35.016 c -1.028,3.277 -1.576,6.763 -1.576,10.378 0,19.259 15.623,34.879 34.898,34.879 19.25,0 34.861,-15.62 34.861,-34.879 0,-15.558 -10.185,-28.728 -24.259,-33.227 0.288,-20.121 0.575,-41.899 0.812,-58.519 9.172,-2.076 16.964,-7.768 21.818,-15.508 19.852,8.01 47.795,19.26 69.554,28.021 v 0.305 c 0,18.356 14.193,33.392 32.21,34.762 v 107.846 z" /><path
           id="path24"
           style="fill:#ed1294;fill-opacity:1;fill-rule:nonzero;stroke:none"
           d="m 653.626,330.266 c -16.011,-12.427 -37.975,-29.499 -55.021,-42.739 v -81.076 h 56.727 c -5.909,6.253 -9.552,14.681 -9.552,23.972 0,15.557 10.209,28.742 24.275,33.227 -0.257,19.852 -0.575,41.83 -0.796,58.511 -5.917,1.341 -11.28,4.175 -15.633,8.105" /><path
           id="path26"
           style="fill:#ed1294;fill-opacity:1;fill-rule:nonzero;stroke:none"
           d="M 66.268,231.561 V 394.864 H 40 v 27.213 h 74.688 l 57.287,-149.294 57.916,149.294 H 305.26 V 394.864 H 278.99 V 231.561 h 26.27 v -27.215 h -82.136 v 27.215 h 26.02 V 394.864 L 174.015,202.188 h -6.426 L 93.243,394.864 V 231.561 H 117.12 V 204.346 H 40 v 27.215 z" /><path
           id="path28"
           style="fill:#ed1294;fill-opacity:1;fill-rule:nonzero;stroke:none"
           d="m 344.889,230.84 v 98.609 h -25.068 v 26.496 h 54.909 v -19.098 c 17.949,14.324 35.509,21.485 52.729,21.485 17.309,0 29.243,-7.881 35.827,-23.644 19.697,15.763 38.062,23.644 55.074,23.644 9.803,0 17.858,-2.164 24.184,-6.494 6.282,-4.34 10.55,-9.825 12.735,-16.447 2.196,-6.626 3.29,-16.42 3.29,-29.372 V 230.84 h 26.501 v -26.494 h -56.346 v 96.439 c 0,8.776 -0.401,14.978 -1.16,18.574 -0.793,3.605 -2.774,6.585 -5.945,8.949 -3.168,2.345 -7.001,3.519 -11.473,3.519 -12.701,0 -27.125,-6.522 -43.267,-19.601 V 230.84 h 26.044 v -26.494 h -55.885 v 99.259 c 0,9.935 -1.43,17.118 -4.285,21.563 -2.876,4.441 -7.732,6.659 -14.6,6.659 -11.254,0 -25.725,-6.522 -43.423,-19.601 V 230.84 h 26.5 v -26.494 h -83.317 v 26.494 z" /></g></g></g></svg>