<svg width="366" height="40" viewBox="0 0 366 40" fill="none" xmlns="http://www.w3.org/2000/svg">
<g clip-path="url(#clip0_117:99)">
<path d="M136.037 29.6344L123.38 34.711C123.38 34.7617 123.384 34.8132 123.384 34.8638C123.384 36.5539 122.718 38.087 121.637 39.2245H141V32.6728C138.894 32.5144 137.076 31.3387 136.037 29.6344" fill="white"/>
<path d="M102.025 0.406167V20.2478L110.258 13.8781C110.07 13.2819 109.97 12.6478 109.97 11.9902C109.97 8.4868 112.824 5.64536 116.344 5.64536C119.86 5.64536 122.711 8.4868 122.711 11.9902C122.711 14.8204 120.851 17.2161 118.28 18.0345C118.333 21.6947 118.385 25.6564 118.429 28.6797C120.104 29.0574 121.527 30.0928 122.414 31.5008C126.039 30.0437 131.143 27.9972 135.117 26.4035V26.348C135.117 23.0089 137.709 20.2737 141 20.0244V0.406167H102.025Z" fill="white"/>
<path d="M112.074 16.7013C109.15 18.9619 105.138 22.0675 102.025 24.476V39.2245H112.386C111.307 38.087 110.641 36.5539 110.641 34.8638C110.641 32.0338 112.506 29.6353 115.075 28.8194C115.028 25.2082 114.97 21.2101 114.929 18.1757C113.849 17.9318 112.869 17.4162 112.074 16.7013" fill="white"/>
<path d="M4.79765 34.6568V4.95031H0V-4.08761e-06H13.6412L24.1042 27.1581L34.6822 -4.08761e-06H48.4477V4.95031H43.6497V34.6568H48.4477V39.6075H33.4462V34.6568H38.1986V4.95031L24.4768 40H23.3032L9.72443 4.95031V34.6568H14.0854V39.6075H0V34.6568H4.79765Z" fill="white"/>
<path d="M55.6856 34.7879V16.8499H51.1072V12.03H61.1359V15.5042C64.4141 12.8985 67.6213 11.5958 70.7664 11.5958C73.9278 11.5958 76.1074 13.0295 77.31 15.8969C80.9075 13.0295 84.2617 11.5958 87.3688 11.5958C89.1592 11.5958 90.6304 11.9895 91.7858 12.7771C92.9332 13.5666 93.7127 14.5644 94.1118 15.769C94.5129 16.9744 94.7127 18.756 94.7127 21.1121V34.7879H99.5529V39.6074H89.2617V22.0642C89.2617 20.4678 89.1885 19.3396 89.0499 18.6854C88.905 18.0296 88.5432 17.4875 87.964 17.0575C87.3854 16.6309 86.6854 16.4173 85.8686 16.4173C83.5488 16.4173 80.9144 17.6038 77.9662 19.983V34.7879H82.7229V39.6074H72.516V21.5512C72.516 19.7439 72.2548 18.4373 71.7333 17.6287C71.208 16.8208 70.3211 16.4173 69.0668 16.4173C67.0113 16.4173 64.3683 17.6038 61.1359 19.983V34.7879H65.9759V39.6074H50.7587V34.7879H55.6856Z" fill="white"/>
</g>
<defs>
<clipPath id="clip0_117:99">
<rect width="141" height="40" fill="white"/>
</clipPath>
</defs>
</svg>
