<?xml version="1.0" encoding="UTF-8"?>
<svg xmlns="http://www.w3.org/2000/svg" id="Logo" viewBox="0 0 3221.82 788.48">
 <path id="Push" d="m0 641.07h139.248l39.67-161.078h128.724c178.918 0 231.542-114.431 231.542-185.859 0-76.53-63.958-139.211-167.585-139.211h-252.59zm313.309-271.137h-107.675l26.717-109.329h103.632c36.431 0 59.1 18.95 59.1 46.647-.006 35.719-30.77 62.682-81.774 62.682zm251.781 106.413c0 102.04 80.149 173.468 242.876 173.468 164.347 0 233.967-88.192 262.307-206.267l71.24-288.627h-141.68l-70.43 286.441c-13.76 56.851-49.38 99.124-121.437 99.124-66.386 0-97.96-38.629-98.77-78.716 0-8.747.81-16.764 2.429-20.408l70.434-286.441h-141.676l-71.245 289.356c-1.619 7.294-4.048 24.052-4.048 32.07zm542.423 80.9c50.19 55.393 147.34 92.565 257.45 92.565 136.82 0 219.4-75.8 219.4-163.993s-102.82-123.906-179.73-146.5c-45.34-14.578-80.15-26.968-80.15-48.834 0-19.679 21.05-37.172 58.29-37.172 51 0 119.01 19.68 158.68 60.5l83.38-86.006c-54.24-51.749-138.43-80.174-225.87-80.174-143.3 0-218.59 83.819-218.59 153.06 0 94.752 102.01 127.55 177.3 150.874 46.96 14.577 80.96 27.7 80.96 51.02 0 18.95-17.81 40.087-63.96 40.087-72.05 0-144.91-29.154-183.77-73.615zm865.45 83.824h139.25l119-486.148h-139.24l-44.53 181.485h-224.26l44.53-181.485h-139.25l-119.01 486.148h139.25l47.77-195.334h224.25z" fill="#015ab0" fill-rule="evenodd"/>
 <path id="TM" d="m3087.49 234.538h16.67v-63.2h22.62v-14.568h-62.02v14.575h22.73v63.2zm117.67 0h16.66v-77.768h-23.31l-18.88 48.5-18.89-48.5h-23.19v77.772h16.55v-55.972l21.91 55.968h7.23l21.92-55.968z" fill="#015ab0" fill-rule="evenodd"/>
 <path id="Square" d="m2660.5 0c217.65 0 394.09 176.508 394.09 394.242s-176.44 394.242-394.09 394.242-394.1-176.508-394.1-394.242 176.44-394.242 394.1-394.242zm-257.86 154.082h509.78v484.273h-509.78zm78.05 79.065h353.68v327.131h-353.68z" fill="#015ab0" fill-rule="evenodd"/>
</svg>