<svg width="366" height="40" viewBox="0 0 366 40" fill="none" xmlns="http://www.w3.org/2000/svg">
<g clip-path="url(#clip0_117:84)">
<path fill-rule="evenodd" clip-rule="evenodd" d="M0 32.5218H7.17457L9.21851 24.3502H15.8508C25.0694 24.3502 27.7807 18.5451 27.7807 14.9215C27.7807 11.0391 24.4854 7.85927 19.1461 7.85927H6.13178L0 32.5218ZM16.1428 18.7669H10.595L11.9716 13.2206H17.3111C19.1881 13.2206 20.3561 14.1819 20.3561 15.587C20.3558 17.399 18.7707 18.7669 16.1428 18.7669ZM29.1155 24.1653C29.1155 29.3418 33.2451 32.9654 41.6294 32.9654C50.0971 32.9654 53.6842 28.4914 55.1444 22.5014L58.8149 7.85916H51.5151L47.8863 22.3905C47.1773 25.2745 45.342 27.4191 41.6294 27.4191C38.2089 27.4191 36.5821 25.4594 36.5404 23.4258C36.5404 22.982 36.5821 22.5753 36.6655 22.3905L40.2946 7.85916H32.9949L29.3241 22.5383C29.2407 22.9084 29.1155 23.7585 29.1155 24.1653V24.1653ZM57.0631 28.2694C59.6491 31.0795 64.6546 32.9652 70.3279 32.9652C77.3774 32.9652 81.6322 29.1199 81.6322 24.6458C81.6322 20.1717 76.3345 18.36 72.3719 17.2138C70.0358 16.4742 68.2422 15.8457 68.2422 14.7364C68.2422 13.7381 69.3268 12.8506 71.2455 12.8506C73.8732 12.8506 77.3774 13.849 79.4213 15.9198L83.7174 11.5567C80.9227 8.93146 76.5849 7.48944 72.0797 7.48944C64.6964 7.48944 60.8172 11.7416 60.8172 15.2543C60.8172 20.0611 66.0731 21.7249 69.9523 22.9082C72.3718 23.6477 74.1237 24.3134 74.1237 25.4964C74.1237 26.4578 73.206 27.5301 70.8282 27.5301C67.1159 27.5301 63.3619 26.0511 61.3597 23.7956L57.0631 28.2694ZM101.654 32.5218H108.829L114.96 7.85927H107.786L105.492 17.0661H93.9371L96.2314 7.85927H89.0568L82.9249 32.5218H90.0996L92.5609 22.6124H104.115L101.654 32.5218Z" fill="white"/>
<path fill-rule="evenodd" clip-rule="evenodd" d="M159.079 11.8982H159.938V8.69204H161.103V7.953H157.908V8.6924H159.079V11.8986V11.8982ZM165.142 11.8982H166V7.953H164.799L163.826 10.4134L162.853 7.953H161.658V11.8984H162.511V9.05893L163.64 11.8982H164.012L165.142 9.05893V11.8982Z" fill="white"/>
<path fill-rule="evenodd" clip-rule="evenodd" d="M137.079 0C148.293 0 157.384 8.95434 157.384 20.0001C157.384 31.0459 148.293 40.0002 137.079 40.0002C125.865 40.0002 116.773 31.0459 116.773 20.0001C116.773 8.95434 125.864 0 137.079 0ZM123.793 7.81666H150.059V32.3841H123.793V7.81666ZM127.814 11.8277H146.037V28.4232H127.814V11.8277Z" fill="white"/>
</g>
<defs>
<clipPath id="clip0_117:84">
<rect width="166" height="40" fill="white"/>
</clipPath>
</defs>
</svg>
