<svg width="366" height="40" viewBox="0 0 366 40" fill="none" xmlns="http://www.w3.org/2000/svg">
<path d="M1.17023 34.4069V28.9372C4.75532 30.2173 8.54295 30.8506 12.3535 30.8071C17.3868 30.8071 19.9035 29.1366 19.9035 25.7956C19.9035 23.3646 18.3526 22.1491 15.2508 22.1491H10.098C3.36599 22.1491 0 19.1104 0 13.0329C0 6.34464 4.79419 3.00051 14.3826 3.00051C17.9378 2.98097 21.4736 3.52062 24.8581 4.59934V10.0316C21.5078 8.79058 17.9594 8.15715 14.3826 8.16165C8.85855 8.16165 6.09655 9.75736 6.09655 12.9488C6.09655 15.3798 7.43035 16.5953 10.098 16.5953H15.2508C22.417 16.5953 26 19.634 26 25.7114C26 32.568 21.4449 35.9963 12.3346 35.9963C8.55204 36.0501 4.78448 35.5137 1.17023 34.4069V34.4069Z" fill="white"/>
<path d="M56 34.4011C52.9459 35.5075 49.7165 36.0482 46.4695 35.9966C34.817 35.9966 28.9938 30.3454 29 19.0428C29 8.34988 34.8232 3.00344 46.4695 3.00344C49.7166 2.95129 52.946 3.49194 56 4.59898V10.0761C53.1359 8.83326 50.0464 8.1979 46.9255 8.20994C39.1324 8.20994 35.2358 11.8116 35.2358 19.0148C35.2358 26.8277 39.1324 30.7342 46.9255 30.7342C50.0464 30.7465 53.136 30.1111 56 28.868V34.3264V34.4011Z" fill="white"/>
<path d="M61.0383 35.9527V3H76.2058C83.0191 3 86.4258 5.94637 86.4258 11.8391C86.4258 15.8265 83.7751 19.1262 78.4737 21.7382L89 36H81.2105L71.0574 21.6246V18.7855C76.9649 17.7886 79.9187 15.5205 79.9187 11.9811C79.9187 9.55204 78.5343 8.33753 75.7655 8.33753H67.2967V35.9148H61L61.0383 35.9527Z" fill="white"/>
<path d="M113.695 3V8.26183H97.0807V16.5615H112.887V22.0315H96.995V30.6908H114V36H91V3H113.715H113.695Z" fill="white"/>
<path d="M140.648 3V8.26183H124.099V16.5615H139.888V22.0315H124.023V30.6908H141V36H118V3H140.648Z" fill="white"/>
<path d="M146 36V3H152.026L169.198 27.0473V3H175V36H168.993L151.821 11.4511V36H146.019H146Z" fill="white"/>
<path d="M186 35.9527V3H201.188C208.011 3 211.422 5.94637 211.422 11.8391C211.422 15.8265 208.768 19.1262 203.459 21.7382L214 36H206.267L196.1 21.6246V18.7855C202.022 17.7886 204.983 15.5205 204.983 11.9811C204.983 9.55204 203.597 8.33753 200.824 8.33753H192.344V35.9148H186.038L186 35.9527Z" fill="white"/>
<path d="M219.111 36H213L226.641 3H233.046L247 36H240.548L236.862 27H226.235L228.281 21.6909H234.733L229.673 9.30281L219.111 36Z" fill="white"/>
<path d="M250 36V3H256.234L273.998 27.0473V3H280V36H273.766L256.002 11.4511V36H250Z" fill="white"/>
<path d="M306.991 3V8.30914H297.542V36H291.448V8.30914H282V3H307H306.991Z" fill="white"/>
</svg>
